G04 #@! TF.GenerationSoftware,KiCad,Pcbnew,7.0.1*
G04 #@! TF.CreationDate,2023-09-20T22:51:36-04:00*
G04 #@! TF.ProjectId,kirigami_pcb,6b697269-6761-46d6-995f-7063622e6b69,rev?*
G04 #@! TF.SameCoordinates,Original*
G04 #@! TF.FileFunction,Copper,L2,Bot*
G04 #@! TF.FilePolarity,Positive*
%FSLAX46Y46*%
G04 Gerber Fmt 4.6, Leading zero omitted, Abs format (unit mm)*
G04 Created by KiCad (PCBNEW 7.0.1) date 2023-09-20 22:51:36*
%MOMM*%
%LPD*%
G01*
G04 APERTURE LIST*
G04 Aperture macros list*
%AMRoundRect*
0 Rectangle with rounded corners*
0 $1 Rounding radius*
0 $2 $3 $4 $5 $6 $7 $8 $9 X,Y pos of 4 corners*
0 Add a 4 corners polygon primitive as box body*
4,1,4,$2,$3,$4,$5,$6,$7,$8,$9,$2,$3,0*
0 Add four circle primitives for the rounded corners*
1,1,$1+$1,$2,$3*
1,1,$1+$1,$4,$5*
1,1,$1+$1,$6,$7*
1,1,$1+$1,$8,$9*
0 Add four rect primitives between the rounded corners*
20,1,$1+$1,$2,$3,$4,$5,0*
20,1,$1+$1,$4,$5,$6,$7,0*
20,1,$1+$1,$6,$7,$8,$9,0*
20,1,$1+$1,$8,$9,$2,$3,0*%
%AMRotRect*
0 Rectangle, with rotation*
0 The origin of the aperture is its center*
0 $1 length*
0 $2 width*
0 $3 Rotation angle, in degrees counterclockwise*
0 Add horizontal line*
21,1,$1,$2,0,0,$3*%
G04 Aperture macros list end*
G04 #@! TA.AperFunction,ComponentPad*
%ADD10RoundRect,0.250000X0.750000X-0.600000X0.750000X0.600000X-0.750000X0.600000X-0.750000X-0.600000X0*%
G04 #@! TD*
G04 #@! TA.AperFunction,ComponentPad*
%ADD11O,2.000000X1.700000*%
G04 #@! TD*
G04 #@! TA.AperFunction,ComponentPad*
%ADD12RoundRect,0.250000X0.725000X-0.600000X0.725000X0.600000X-0.725000X0.600000X-0.725000X-0.600000X0*%
G04 #@! TD*
G04 #@! TA.AperFunction,ComponentPad*
%ADD13O,1.950000X1.700000*%
G04 #@! TD*
G04 #@! TA.AperFunction,ComponentPad*
%ADD14R,2.600000X2.600000*%
G04 #@! TD*
G04 #@! TA.AperFunction,ComponentPad*
%ADD15C,2.600000*%
G04 #@! TD*
G04 #@! TA.AperFunction,ComponentPad*
%ADD16RoundRect,0.250001X0.499999X0.499999X-0.499999X0.499999X-0.499999X-0.499999X0.499999X-0.499999X0*%
G04 #@! TD*
G04 #@! TA.AperFunction,ComponentPad*
%ADD17C,1.500000*%
G04 #@! TD*
G04 #@! TA.AperFunction,SMDPad,CuDef*
%ADD18RoundRect,0.250000X-0.242612X0.529784X-0.580112X-0.054784X0.242612X-0.529784X0.580112X0.054784X0*%
G04 #@! TD*
G04 #@! TA.AperFunction,SMDPad,CuDef*
%ADD19RotRect,1.500000X0.900000X200.000000*%
G04 #@! TD*
G04 #@! TA.AperFunction,SMDPad,CuDef*
%ADD20RoundRect,0.250000X0.330922X-0.479606X0.561786X0.154687X-0.330922X0.479606X-0.561786X-0.154687X0*%
G04 #@! TD*
G04 #@! TA.AperFunction,SMDPad,CuDef*
%ADD21RoundRect,0.250000X-0.561786X0.154687X-0.330922X-0.479606X0.561786X-0.154687X0.330922X0.479606X0*%
G04 #@! TD*
G04 #@! TA.AperFunction,SMDPad,CuDef*
%ADD22RotRect,1.500000X0.900000X240.000000*%
G04 #@! TD*
G04 #@! TA.AperFunction,SMDPad,CuDef*
%ADD23RoundRect,0.250000X0.479606X0.330922X-0.154687X0.561786X-0.479606X-0.330922X0.154687X-0.561786X0*%
G04 #@! TD*
G04 #@! TA.AperFunction,SMDPad,CuDef*
%ADD24R,1.500000X0.900000*%
G04 #@! TD*
G04 #@! TA.AperFunction,SMDPad,CuDef*
%ADD25RotRect,1.500000X0.900000X300.000000*%
G04 #@! TD*
G04 #@! TA.AperFunction,SMDPad,CuDef*
%ADD26RoundRect,0.250000X-0.580112X0.054784X-0.242612X-0.529784X0.580112X-0.054784X0.242612X0.529784X0*%
G04 #@! TD*
G04 #@! TA.AperFunction,SMDPad,CuDef*
%ADD27RotRect,1.500000X0.900000X340.000000*%
G04 #@! TD*
G04 #@! TA.AperFunction,SMDPad,CuDef*
%ADD28RoundRect,0.250000X-0.337500X-0.475000X0.337500X-0.475000X0.337500X0.475000X-0.337500X0.475000X0*%
G04 #@! TD*
G04 #@! TA.AperFunction,ViaPad*
%ADD29C,0.756400*%
G04 #@! TD*
G04 #@! TA.AperFunction,ViaPad*
%ADD30C,0.600000*%
G04 #@! TD*
G04 #@! TA.AperFunction,Conductor*
%ADD31C,0.500000*%
G04 #@! TD*
G04 #@! TA.AperFunction,Conductor*
%ADD32C,1.000000*%
G04 #@! TD*
G04 APERTURE END LIST*
D10*
X201500000Y-59000000D03*
D11*
X201500000Y-56500000D03*
D10*
X220700000Y-54250000D03*
D11*
X220700000Y-51750000D03*
D12*
X201500000Y-73500000D03*
D13*
X201500000Y-71000000D03*
X201500000Y-68500000D03*
X201500000Y-66000000D03*
D10*
X228075000Y-54250000D03*
D11*
X228075000Y-51750000D03*
D14*
X226900000Y-45000000D03*
D15*
X226900000Y-39920000D03*
D16*
X228000000Y-62000000D03*
D17*
X225000000Y-62000000D03*
X222000000Y-62000000D03*
X219000000Y-62000000D03*
X216000000Y-62000000D03*
X228000000Y-59000000D03*
X225000000Y-59000000D03*
X222000000Y-59000000D03*
X219000000Y-59000000D03*
X216000000Y-59000000D03*
D18*
X182208750Y-69391499D03*
X181171250Y-71188501D03*
D19*
X176994111Y-45123761D03*
X178122777Y-48224746D03*
X173518283Y-49900645D03*
X172389617Y-46799660D03*
D20*
X180305154Y-82044931D03*
X181014846Y-80095069D03*
D19*
X221634111Y-28883761D03*
X222762777Y-31984746D03*
X218158283Y-33660645D03*
X217029617Y-30559660D03*
D21*
X179070000Y-43942000D03*
X179779692Y-45891862D03*
D22*
X177842116Y-65931476D03*
X180700000Y-67581476D03*
X178250000Y-71825000D03*
X175392116Y-70175000D03*
D23*
X200144931Y-86254846D03*
X198195069Y-85545154D03*
D21*
X215710308Y-33070138D03*
X216420000Y-35020000D03*
D24*
X183200000Y-66152340D03*
X183200000Y-62852340D03*
X188100000Y-62852340D03*
X188100000Y-66152340D03*
D25*
X175392116Y-58825000D03*
X178250000Y-57175000D03*
X180700000Y-61418524D03*
X177842116Y-63068524D03*
D26*
X180722500Y-57002998D03*
X181760000Y-58800000D03*
D21*
X203580308Y-39700138D03*
X204290000Y-41650000D03*
D27*
X172397223Y-81994746D03*
X173525889Y-78893761D03*
X178130383Y-80569660D03*
X177001717Y-83670645D03*
D28*
X184115000Y-60130000D03*
X186190000Y-60130000D03*
D19*
X199314111Y-37003761D03*
X200442777Y-40104746D03*
X195838283Y-41780645D03*
X194709617Y-38679660D03*
D27*
X194713891Y-90114328D03*
X195842557Y-87013343D03*
X200447051Y-88689242D03*
X199318385Y-91790227D03*
D29*
X210570000Y-58965000D03*
D30*
X180305154Y-82044931D03*
X172397223Y-81994746D03*
X221634111Y-28883761D03*
D29*
X210570000Y-61040000D03*
D30*
X202980000Y-37010000D03*
X199314111Y-37003761D03*
X184115000Y-60130000D03*
X177842116Y-65931476D03*
X194713891Y-90114328D03*
X183240000Y-66160000D03*
X176994111Y-45123761D03*
X200144931Y-86254846D03*
X214075000Y-52650000D03*
D31*
X230001100Y-58594386D02*
X230001100Y-57538058D01*
X229001100Y-61008600D02*
X228001100Y-62008600D01*
X229038050Y-55213050D02*
X228075000Y-54250000D01*
X230001117Y-57538058D02*
G75*
G03*
X229038050Y-55213050I-3288117J-42D01*
G01*
X229001104Y-61008604D02*
G75*
G03*
X230001100Y-58594386I-2414204J2414204D01*
G01*
D32*
X226338178Y-57470422D02*
X227876356Y-59008600D01*
X225850000Y-46050000D02*
X226900000Y-45000000D01*
X224800000Y-48584924D02*
X224800000Y-53756931D01*
X225849993Y-46049993D02*
G75*
G03*
X224800000Y-48584924I2534907J-2534907D01*
G01*
X224799987Y-53756931D02*
G75*
G03*
X226338178Y-57470422I5251713J31D01*
G01*
X220862634Y-54872634D02*
X224998600Y-59008600D01*
X220700010Y-54480000D02*
G75*
G03*
X220862635Y-54872633I555290J0D01*
G01*
D31*
X205146619Y-55580000D02*
X216318536Y-55580000D01*
X220166292Y-57173792D02*
X222001100Y-59008600D01*
X202904780Y-56508600D02*
X201506100Y-56508600D01*
X205146619Y-55580009D02*
G75*
G03*
X204025701Y-56044301I-19J-1585191D01*
G01*
X202904780Y-56508591D02*
G75*
G03*
X204025699Y-56044299I20J1585191D01*
G01*
X220166284Y-57173800D02*
G75*
G03*
X216318536Y-55580000I-3847784J-3847800D01*
G01*
X204650099Y-58049899D02*
X204464020Y-58235979D01*
X218044656Y-58047644D02*
X219001100Y-59004088D01*
X215735595Y-57091200D02*
X206964606Y-57091200D01*
X202598750Y-59008600D02*
X201506100Y-59008600D01*
X206964606Y-57091202D02*
G75*
G03*
X204650099Y-58049899I-6J-3273198D01*
G01*
X202598750Y-59008631D02*
G75*
G03*
X204464019Y-58235978I-50J2637931D01*
G01*
X218044657Y-58047643D02*
G75*
G03*
X215735595Y-57091200I-2309057J-2309057D01*
G01*
X202248750Y-66003600D02*
X201501100Y-66003600D01*
X185951908Y-61418524D02*
X180876776Y-61418524D01*
X173917350Y-49900645D02*
X173518283Y-49900645D01*
X174700000Y-76712500D02*
X174700000Y-77162563D01*
X189069975Y-79450000D02*
X185869974Y-79450000D01*
X185951908Y-61418524D02*
X186428092Y-61418524D01*
X207190391Y-41780645D02*
X195838283Y-41780645D01*
X184180025Y-80150000D02*
X178412521Y-80150000D01*
X175804765Y-79504765D02*
X175575000Y-79275000D01*
X198050000Y-66043933D02*
X198050000Y-66256066D01*
X198050000Y-66043933D02*
X198050000Y-41866000D01*
X188100000Y-62852340D02*
X188698830Y-63451170D01*
X190144533Y-64050000D02*
X198025000Y-64050000D01*
X175893242Y-73831757D02*
X177776256Y-71948743D01*
X180950000Y-60182756D02*
X180950000Y-60991747D01*
X179043488Y-45804931D02*
X179674846Y-45804931D01*
X188100000Y-62852340D02*
X186834540Y-61586880D01*
X198306066Y-66000000D02*
X201500000Y-66000000D01*
X198050000Y-86292192D02*
X200447051Y-88689242D01*
X181355000Y-59205000D02*
X181760000Y-58800000D01*
X190759924Y-80150000D02*
X198050000Y-80150000D01*
X198050000Y-86292192D02*
X198050000Y-66256066D01*
X209845848Y-59154151D02*
X203525068Y-65474931D01*
X210570000Y-58965000D02*
X210302500Y-58965000D01*
X186296036Y-49480000D02*
X174236368Y-49480000D01*
X177362500Y-80150000D02*
X178137478Y-80150000D01*
X178275000Y-80287521D02*
X178275000Y-80425043D01*
X180853000Y-71506750D02*
X181171250Y-71188501D01*
X217354369Y-33870630D02*
X211038147Y-40186852D01*
X180084678Y-71825000D02*
X178425000Y-71825000D01*
X174598599Y-49618461D02*
X177965693Y-46251368D01*
X196084838Y-41945161D02*
X190143792Y-47886207D01*
X210644429Y-59008600D02*
X216001100Y-59008600D01*
X178137478Y-80150000D02*
X178412521Y-80150000D01*
X186190000Y-61180432D02*
X186190000Y-60130000D01*
X210570000Y-58965000D02*
X210591800Y-58986800D01*
X174700016Y-77162563D02*
G75*
G03*
X175575001Y-79274999I2987384J-37D01*
G01*
X202248750Y-66003630D02*
G75*
G03*
X203525067Y-65474930I-50J1805030D01*
G01*
X178275000Y-80287521D02*
G75*
G03*
X178137478Y-80150000I-137500J21D01*
G01*
X178412521Y-80150000D02*
G75*
G03*
X178275000Y-80287521I-21J-137500D01*
G01*
X185951908Y-61418500D02*
G75*
G03*
X186190000Y-61180432I-8J238100D01*
G01*
X186834538Y-61586882D02*
G75*
G03*
X186428092Y-61418524I-406438J-406418D01*
G01*
X186189976Y-61180432D02*
G75*
G03*
X186428092Y-61418524I238124J32D01*
G01*
X189914968Y-79799982D02*
G75*
G03*
X189069975Y-79450000I-844968J-845018D01*
G01*
X179043488Y-45804934D02*
G75*
G03*
X177965694Y-46251369I12J-1524266D01*
G01*
X175804759Y-79504771D02*
G75*
G03*
X177362500Y-80150000I1557741J1557771D01*
G01*
X210591791Y-58986809D02*
G75*
G03*
X210644429Y-59008600I52609J52609D01*
G01*
X181355013Y-59205013D02*
G75*
G03*
X180950000Y-60182756I977787J-977787D01*
G01*
X186296036Y-49480010D02*
G75*
G03*
X190143792Y-47886207I-36J5441610D01*
G01*
X185869974Y-79449990D02*
G75*
G03*
X185025000Y-79800000I26J-1195010D01*
G01*
X184180025Y-80150010D02*
G75*
G03*
X185025000Y-79800000I-25J1195010D01*
G01*
X189914932Y-79800018D02*
G75*
G03*
X190759924Y-80150000I844968J845018D01*
G01*
X198049918Y-66043933D02*
G75*
G03*
X198125000Y-66075000I43982J33D01*
G01*
X198306066Y-65999986D02*
G75*
G03*
X198125000Y-66075000I34J-256114D01*
G01*
X175893239Y-73831754D02*
G75*
G03*
X174700000Y-76712500I2880761J-2880746D01*
G01*
X173917350Y-49900675D02*
G75*
G03*
X174598599Y-49618461I-50J963475D01*
G01*
X210302500Y-58964999D02*
G75*
G03*
X209845848Y-59154151I0J-645801D01*
G01*
X174236368Y-49479982D02*
G75*
G03*
X173728605Y-49690322I32J-718118D01*
G01*
X217861319Y-33660664D02*
G75*
G03*
X217354369Y-33870630I-19J-716936D01*
G01*
X198125010Y-66075010D02*
G75*
G03*
X198050000Y-66256066I181090J-181090D01*
G01*
X180824981Y-61293505D02*
G75*
G03*
X180950000Y-60991747I-301781J301805D01*
G01*
X180084678Y-71824975D02*
G75*
G03*
X180853000Y-71506750I22J1086575D01*
G01*
X207190391Y-41780639D02*
G75*
G03*
X211038147Y-40186852I9J5441539D01*
G01*
X188698820Y-63451180D02*
G75*
G03*
X190144533Y-64050000I1445680J1445680D01*
G01*
X178075000Y-71825003D02*
G75*
G03*
X177776256Y-71948743I0J-422497D01*
G01*
X180325391Y-83670645D02*
X177001717Y-83670645D01*
X190397532Y-81272532D02*
X195737980Y-86612980D01*
X184173147Y-82076851D02*
X184977467Y-81272532D01*
X187687500Y-80150010D02*
G75*
G03*
X184977467Y-81272532I0J-3832590D01*
G01*
X180325391Y-83670638D02*
G75*
G03*
X184173146Y-82076850I9J5441538D01*
G01*
X190397539Y-81272525D02*
G75*
G03*
X187687500Y-80150000I-2710039J-2710075D01*
G01*
X195842588Y-86865450D02*
G75*
G03*
X195737979Y-86612981I-357088J-50D01*
G01*
X199684773Y-91577727D02*
X199684773Y-91790227D01*
X215815512Y-64084487D02*
X205543792Y-74356207D01*
X218093987Y-63140712D02*
X219001100Y-62233600D01*
X202356207Y-88693792D02*
X199835033Y-91214966D01*
X203950000Y-84846036D02*
X203950000Y-78203963D01*
X205543821Y-74356236D02*
G75*
G03*
X203950000Y-78203963I3847679J-3847764D01*
G01*
X216954750Y-63612628D02*
G75*
G03*
X215815513Y-64084488I-50J-1611072D01*
G01*
X199835019Y-91214952D02*
G75*
G03*
X199684773Y-91577727I362781J-362748D01*
G01*
X202356200Y-88693785D02*
G75*
G03*
X203950000Y-84846036I-3847800J3847785D01*
G01*
X216954750Y-63612642D02*
G75*
G03*
X218093987Y-63140712I-50J1611142D01*
G01*
X177612148Y-58825000D02*
X175563317Y-58825000D01*
X177842116Y-66364489D02*
X177842116Y-65931476D01*
X202457542Y-38577372D02*
X203580308Y-39700138D01*
X177944780Y-44875442D02*
X178965154Y-43855069D01*
X179809391Y-68764777D02*
X178148302Y-67103688D01*
X215516800Y-61524300D02*
X216001100Y-62008600D01*
X203701030Y-67928969D02*
X210562928Y-61067071D01*
X219980159Y-30177346D02*
X221273745Y-28883761D01*
X216395085Y-33070138D02*
X215710308Y-33070138D01*
X202980000Y-37010000D02*
X202457542Y-37532457D01*
X214347596Y-61040000D02*
X210570000Y-61040000D01*
X210570000Y-61050000D02*
X210570000Y-61040000D01*
X175150000Y-60871058D02*
X175150000Y-59238317D01*
X176425579Y-63950579D02*
X177642584Y-65167584D01*
X178219154Y-66152340D02*
X183192340Y-66152340D01*
X202313750Y-68503600D02*
X201501100Y-68503600D01*
X179811499Y-57913999D02*
X180722500Y-57002998D01*
X217564072Y-32585927D02*
X219967346Y-30182653D01*
X181322431Y-69391499D02*
X182208750Y-69391499D01*
X177345286Y-45123761D02*
X176994111Y-45123761D01*
X215516801Y-61524299D02*
G75*
G03*
X214347596Y-61040000I-1169201J-1169201D01*
G01*
X175150030Y-60871058D02*
G75*
G03*
X176425579Y-63950579I4355070J-42D01*
G01*
X177842124Y-66364489D02*
G75*
G03*
X178148303Y-67103687I1045376J-11D01*
G01*
X177842126Y-65649296D02*
G75*
G03*
X177642584Y-65167584I-681226J-4D01*
G01*
X177345286Y-45123736D02*
G75*
G03*
X177944780Y-44875442I14J847836D01*
G01*
X179809368Y-68764800D02*
G75*
G03*
X181322431Y-69391499I1513032J1513100D01*
G01*
X175271053Y-58946053D02*
G75*
G03*
X175150000Y-59238317I292247J-292247D01*
G01*
X210562920Y-61067063D02*
G75*
G03*
X210570000Y-61050000I-17020J17063D01*
G01*
X219973753Y-30180049D02*
G75*
G03*
X219967347Y-30182654I-53J-9051D01*
G01*
X202457528Y-37532443D02*
G75*
G03*
X202457542Y-38577372I522472J-522457D01*
G01*
X202313750Y-68503637D02*
G75*
G03*
X203701029Y-67928968I-50J1961937D01*
G01*
X177952570Y-66041886D02*
G75*
G03*
X178219154Y-66152340I266630J266586D01*
G01*
X219973753Y-30179954D02*
G75*
G03*
X219980159Y-30177345I47J9054D01*
G01*
X216395085Y-33070114D02*
G75*
G03*
X217564071Y-32585926I15J1653214D01*
G01*
X177612148Y-58825019D02*
G75*
G03*
X179811498Y-57913998I-48J3110419D01*
G01*
X225797300Y-62797300D02*
X225000000Y-62000000D01*
X229637500Y-53312500D02*
X228075000Y-51750000D01*
X231200000Y-60539049D02*
X231200000Y-57084708D01*
X228144449Y-63594600D02*
X227722152Y-63594600D01*
X225797314Y-62797286D02*
G75*
G03*
X227722152Y-63594600I1924886J1924886D01*
G01*
X230305035Y-62699635D02*
G75*
G03*
X231200000Y-60539049I-2160635J2160635D01*
G01*
X228144449Y-63594620D02*
G75*
G03*
X230305050Y-62699650I-49J3055620D01*
G01*
X231199996Y-57084708D02*
G75*
G03*
X229637500Y-53312500I-5334696J8D01*
G01*
D32*
X220700000Y-48373963D02*
X220700000Y-51750000D01*
X222293792Y-44526207D02*
X226900000Y-39920000D01*
X222293821Y-44526236D02*
G75*
G03*
X220700000Y-48373963I3847679J-3847764D01*
G01*
D31*
X173525889Y-77051461D02*
X173525889Y-78893761D01*
X174828591Y-73906457D02*
X176931556Y-71803493D01*
X176931556Y-71714440D02*
X175392116Y-70175000D01*
X176931579Y-71803516D02*
G75*
G03*
X176950000Y-71758967I-44579J44516D01*
G01*
X176950014Y-71758967D02*
G75*
G03*
X176931556Y-71714440I-63014J-33D01*
G01*
X174828610Y-73906476D02*
G75*
G03*
X173525889Y-77051461I3144990J-3145024D01*
G01*
X185660312Y-67581476D02*
X180700000Y-67581476D01*
X187385432Y-66866908D02*
X188100000Y-66152340D01*
X185660312Y-67581488D02*
G75*
G03*
X187385432Y-66866908I-12J2439688D01*
G01*
X178211165Y-62852340D02*
X183200000Y-62852340D01*
X178211165Y-62852319D02*
G75*
G03*
X177950208Y-62960432I35J-369081D01*
G01*
X171450000Y-48321510D02*
X171450000Y-47739277D01*
X171947728Y-50800000D02*
X178250000Y-57175000D01*
X171947728Y-50800000D02*
X171946692Y-50798800D01*
X171450000Y-48321510D02*
X171449521Y-48322974D01*
X171450000Y-47739277D02*
X172389617Y-46799660D01*
X171449527Y-48322976D02*
G75*
G03*
X171946692Y-50798800I2438673J-798124D01*
G01*
X185014658Y-42222258D02*
X185403719Y-41949829D01*
X186245501Y-41511615D02*
X186691815Y-41349166D01*
X187618332Y-41143754D02*
X188091483Y-41102355D01*
X188328963Y-41100000D02*
X190038561Y-41100000D01*
X185815044Y-41712346D02*
X186245501Y-41511615D01*
X187150589Y-41226234D02*
X187618332Y-41143754D01*
X192960169Y-39889829D02*
X193979676Y-38870323D01*
X188091483Y-41102355D02*
X188328963Y-41100000D01*
X179959000Y-48133000D02*
X178344271Y-48133000D01*
X181483000Y-46184420D02*
X181483000Y-46609000D01*
X181213592Y-47259407D02*
X180975000Y-47498000D01*
X181991000Y-44958000D02*
X185014658Y-42222258D01*
X185403719Y-41949829D02*
X185815044Y-41712346D01*
X186691815Y-41349166D02*
X187150589Y-41226234D01*
X180975000Y-47498000D02*
X180609408Y-47863592D01*
X181990994Y-44957994D02*
G75*
G03*
X181483000Y-46184420I1226406J-1226406D01*
G01*
X179959000Y-48133004D02*
G75*
G03*
X180609408Y-47863592I0J919804D01*
G01*
X178344271Y-48132968D02*
G75*
G03*
X178122777Y-48224746I29J-313232D01*
G01*
X190038561Y-41099964D02*
G75*
G03*
X192960168Y-39889828I39J4131764D01*
G01*
X194439978Y-38679637D02*
G75*
G03*
X193979676Y-38870323I22J-650963D01*
G01*
X181213589Y-47259404D02*
G75*
G03*
X181483000Y-46609000I-650389J650404D01*
G01*
X201411388Y-37108611D02*
X201159614Y-37360385D01*
X212503792Y-34546207D02*
X216299676Y-30750323D01*
X200442777Y-39090984D02*
X200442777Y-40104746D01*
X208656036Y-36140000D02*
X203749823Y-36140000D01*
X201159625Y-37360396D02*
G75*
G03*
X200442777Y-39090984I1730575J-1730604D01*
G01*
X203749823Y-36140003D02*
G75*
G03*
X201411388Y-37108611I-23J-3306997D01*
G01*
X208656036Y-36140010D02*
G75*
G03*
X212503792Y-34546207I-36J5441610D01*
G01*
X216759978Y-30559637D02*
G75*
G03*
X216299676Y-30750323I22J-650963D01*
G01*
X214075000Y-52650000D02*
X214075000Y-42878963D01*
X215668792Y-39031207D02*
X222715254Y-31984746D01*
X215668821Y-39031236D02*
G75*
G03*
X214075000Y-42878963I3847679J-3847764D01*
G01*
M02*
