G04 #@! TF.GenerationSoftware,KiCad,Pcbnew,7.0.1*
G04 #@! TF.CreationDate,2023-09-20T22:51:36-04:00*
G04 #@! TF.ProjectId,kirigami_pcb,6b697269-6761-46d6-995f-7063622e6b69,rev?*
G04 #@! TF.SameCoordinates,Original*
G04 #@! TF.FileFunction,Legend,Top*
G04 #@! TF.FilePolarity,Positive*
%FSLAX46Y46*%
G04 Gerber Fmt 4.6, Leading zero omitted, Abs format (unit mm)*
G04 Created by KiCad (PCBNEW 7.0.1) date 2023-09-20 22:51:36*
%MOMM*%
%LPD*%
G01*
G04 APERTURE LIST*
G04 Aperture macros list*
%AMRoundRect*
0 Rectangle with rounded corners*
0 $1 Rounding radius*
0 $2 $3 $4 $5 $6 $7 $8 $9 X,Y pos of 4 corners*
0 Add a 4 corners polygon primitive as box body*
4,1,4,$2,$3,$4,$5,$6,$7,$8,$9,$2,$3,0*
0 Add four circle primitives for the rounded corners*
1,1,$1+$1,$2,$3*
1,1,$1+$1,$4,$5*
1,1,$1+$1,$6,$7*
1,1,$1+$1,$8,$9*
0 Add four rect primitives between the rounded corners*
20,1,$1+$1,$2,$3,$4,$5,0*
20,1,$1+$1,$4,$5,$6,$7,0*
20,1,$1+$1,$6,$7,$8,$9,0*
20,1,$1+$1,$8,$9,$2,$3,0*%
G04 Aperture macros list end*
%ADD10C,0.200000*%
%ADD11C,0.150000*%
%ADD12C,0.120000*%
%ADD13C,3.200000*%
%ADD14RoundRect,0.250000X0.750000X-0.600000X0.750000X0.600000X-0.750000X0.600000X-0.750000X-0.600000X0*%
%ADD15O,2.000000X1.700000*%
%ADD16RoundRect,0.250000X0.725000X-0.600000X0.725000X0.600000X-0.725000X0.600000X-0.725000X-0.600000X0*%
%ADD17O,1.950000X1.700000*%
%ADD18R,2.600000X2.600000*%
%ADD19C,2.600000*%
%ADD20RoundRect,0.250000X0.475000X-0.337500X0.475000X0.337500X-0.475000X0.337500X-0.475000X-0.337500X0*%
%ADD21C,3.000000*%
%ADD22RoundRect,0.250001X0.499999X0.499999X-0.499999X0.499999X-0.499999X-0.499999X0.499999X-0.499999X0*%
%ADD23C,1.500000*%
G04 APERTURE END LIST*
D10*
X208653273Y-56958333D02*
X209903273Y-56541666D01*
X209903273Y-56541666D02*
X208653273Y-56125000D01*
X208653273Y-55470237D02*
X208653273Y-55351190D01*
X208653273Y-55351190D02*
X208712797Y-55232142D01*
X208712797Y-55232142D02*
X208772321Y-55172618D01*
X208772321Y-55172618D02*
X208891369Y-55113094D01*
X208891369Y-55113094D02*
X209129464Y-55053571D01*
X209129464Y-55053571D02*
X209427083Y-55053571D01*
X209427083Y-55053571D02*
X209665178Y-55113094D01*
X209665178Y-55113094D02*
X209784226Y-55172618D01*
X209784226Y-55172618D02*
X209843750Y-55232142D01*
X209843750Y-55232142D02*
X209903273Y-55351190D01*
X209903273Y-55351190D02*
X209903273Y-55470237D01*
X209903273Y-55470237D02*
X209843750Y-55589285D01*
X209843750Y-55589285D02*
X209784226Y-55648809D01*
X209784226Y-55648809D02*
X209665178Y-55708332D01*
X209665178Y-55708332D02*
X209427083Y-55767856D01*
X209427083Y-55767856D02*
X209129464Y-55767856D01*
X209129464Y-55767856D02*
X208891369Y-55708332D01*
X208891369Y-55708332D02*
X208772321Y-55648809D01*
X208772321Y-55648809D02*
X208712797Y-55589285D01*
X208712797Y-55589285D02*
X208653273Y-55470237D01*
X209903273Y-53565475D02*
X208653273Y-53565475D01*
X209903273Y-52851190D02*
X209188988Y-53386904D01*
X208653273Y-52851190D02*
X209367559Y-53565475D01*
X209903273Y-52315475D02*
X209069940Y-52315475D01*
X208653273Y-52315475D02*
X208712797Y-52374999D01*
X208712797Y-52374999D02*
X208772321Y-52315475D01*
X208772321Y-52315475D02*
X208712797Y-52255952D01*
X208712797Y-52255952D02*
X208653273Y-52315475D01*
X208653273Y-52315475D02*
X208772321Y-52315475D01*
X209903273Y-51720237D02*
X209069940Y-51720237D01*
X209308035Y-51720237D02*
X209188988Y-51660714D01*
X209188988Y-51660714D02*
X209129464Y-51601190D01*
X209129464Y-51601190D02*
X209069940Y-51482142D01*
X209069940Y-51482142D02*
X209069940Y-51363095D01*
X209903273Y-50946427D02*
X209069940Y-50946427D01*
X208653273Y-50946427D02*
X208712797Y-51005951D01*
X208712797Y-51005951D02*
X208772321Y-50946427D01*
X208772321Y-50946427D02*
X208712797Y-50886904D01*
X208712797Y-50886904D02*
X208653273Y-50946427D01*
X208653273Y-50946427D02*
X208772321Y-50946427D01*
X209069940Y-49815475D02*
X210081845Y-49815475D01*
X210081845Y-49815475D02*
X210200892Y-49874999D01*
X210200892Y-49874999D02*
X210260416Y-49934523D01*
X210260416Y-49934523D02*
X210319940Y-50053570D01*
X210319940Y-50053570D02*
X210319940Y-50232142D01*
X210319940Y-50232142D02*
X210260416Y-50351189D01*
X209843750Y-49815475D02*
X209903273Y-49934523D01*
X209903273Y-49934523D02*
X209903273Y-50172618D01*
X209903273Y-50172618D02*
X209843750Y-50291666D01*
X209843750Y-50291666D02*
X209784226Y-50351189D01*
X209784226Y-50351189D02*
X209665178Y-50410713D01*
X209665178Y-50410713D02*
X209308035Y-50410713D01*
X209308035Y-50410713D02*
X209188988Y-50351189D01*
X209188988Y-50351189D02*
X209129464Y-50291666D01*
X209129464Y-50291666D02*
X209069940Y-50172618D01*
X209069940Y-50172618D02*
X209069940Y-49934523D01*
X209069940Y-49934523D02*
X209129464Y-49815475D01*
X209903273Y-48684523D02*
X209248511Y-48684523D01*
X209248511Y-48684523D02*
X209129464Y-48744047D01*
X209129464Y-48744047D02*
X209069940Y-48863095D01*
X209069940Y-48863095D02*
X209069940Y-49101190D01*
X209069940Y-49101190D02*
X209129464Y-49220237D01*
X209843750Y-48684523D02*
X209903273Y-48803571D01*
X209903273Y-48803571D02*
X209903273Y-49101190D01*
X209903273Y-49101190D02*
X209843750Y-49220237D01*
X209843750Y-49220237D02*
X209724702Y-49279761D01*
X209724702Y-49279761D02*
X209605654Y-49279761D01*
X209605654Y-49279761D02*
X209486607Y-49220237D01*
X209486607Y-49220237D02*
X209427083Y-49101190D01*
X209427083Y-49101190D02*
X209427083Y-48803571D01*
X209427083Y-48803571D02*
X209367559Y-48684523D01*
X209903273Y-48089285D02*
X209069940Y-48089285D01*
X209188988Y-48089285D02*
X209129464Y-48029762D01*
X209129464Y-48029762D02*
X209069940Y-47910714D01*
X209069940Y-47910714D02*
X209069940Y-47732143D01*
X209069940Y-47732143D02*
X209129464Y-47613095D01*
X209129464Y-47613095D02*
X209248511Y-47553571D01*
X209248511Y-47553571D02*
X209903273Y-47553571D01*
X209248511Y-47553571D02*
X209129464Y-47494047D01*
X209129464Y-47494047D02*
X209069940Y-47375000D01*
X209069940Y-47375000D02*
X209069940Y-47196428D01*
X209069940Y-47196428D02*
X209129464Y-47077381D01*
X209129464Y-47077381D02*
X209248511Y-47017857D01*
X209248511Y-47017857D02*
X209903273Y-47017857D01*
X209903273Y-46422618D02*
X209069940Y-46422618D01*
X208653273Y-46422618D02*
X208712797Y-46482142D01*
X208712797Y-46482142D02*
X208772321Y-46422618D01*
X208772321Y-46422618D02*
X208712797Y-46363095D01*
X208712797Y-46363095D02*
X208653273Y-46422618D01*
X208653273Y-46422618D02*
X208772321Y-46422618D01*
X209903273Y-44874999D02*
X208653273Y-44874999D01*
X208653273Y-44874999D02*
X208653273Y-44398809D01*
X208653273Y-44398809D02*
X208712797Y-44279761D01*
X208712797Y-44279761D02*
X208772321Y-44220238D01*
X208772321Y-44220238D02*
X208891369Y-44160714D01*
X208891369Y-44160714D02*
X209069940Y-44160714D01*
X209069940Y-44160714D02*
X209188988Y-44220238D01*
X209188988Y-44220238D02*
X209248511Y-44279761D01*
X209248511Y-44279761D02*
X209308035Y-44398809D01*
X209308035Y-44398809D02*
X209308035Y-44874999D01*
X209784226Y-42910714D02*
X209843750Y-42970238D01*
X209843750Y-42970238D02*
X209903273Y-43148809D01*
X209903273Y-43148809D02*
X209903273Y-43267857D01*
X209903273Y-43267857D02*
X209843750Y-43446428D01*
X209843750Y-43446428D02*
X209724702Y-43565476D01*
X209724702Y-43565476D02*
X209605654Y-43624999D01*
X209605654Y-43624999D02*
X209367559Y-43684523D01*
X209367559Y-43684523D02*
X209188988Y-43684523D01*
X209188988Y-43684523D02*
X208950892Y-43624999D01*
X208950892Y-43624999D02*
X208831845Y-43565476D01*
X208831845Y-43565476D02*
X208712797Y-43446428D01*
X208712797Y-43446428D02*
X208653273Y-43267857D01*
X208653273Y-43267857D02*
X208653273Y-43148809D01*
X208653273Y-43148809D02*
X208712797Y-42970238D01*
X208712797Y-42970238D02*
X208772321Y-42910714D01*
X209248511Y-41958333D02*
X209308035Y-41779761D01*
X209308035Y-41779761D02*
X209367559Y-41720238D01*
X209367559Y-41720238D02*
X209486607Y-41660714D01*
X209486607Y-41660714D02*
X209665178Y-41660714D01*
X209665178Y-41660714D02*
X209784226Y-41720238D01*
X209784226Y-41720238D02*
X209843750Y-41779761D01*
X209843750Y-41779761D02*
X209903273Y-41898809D01*
X209903273Y-41898809D02*
X209903273Y-42374999D01*
X209903273Y-42374999D02*
X208653273Y-42374999D01*
X208653273Y-42374999D02*
X208653273Y-41958333D01*
X208653273Y-41958333D02*
X208712797Y-41839285D01*
X208712797Y-41839285D02*
X208772321Y-41779761D01*
X208772321Y-41779761D02*
X208891369Y-41720238D01*
X208891369Y-41720238D02*
X209010416Y-41720238D01*
X209010416Y-41720238D02*
X209129464Y-41779761D01*
X209129464Y-41779761D02*
X209188988Y-41839285D01*
X209188988Y-41839285D02*
X209248511Y-41958333D01*
X209248511Y-41958333D02*
X209248511Y-42374999D01*
X210678273Y-57166666D02*
X211928273Y-56749999D01*
X211928273Y-56749999D02*
X210678273Y-56333333D01*
X210797321Y-55976189D02*
X210737797Y-55916665D01*
X210737797Y-55916665D02*
X210678273Y-55797618D01*
X210678273Y-55797618D02*
X210678273Y-55499999D01*
X210678273Y-55499999D02*
X210737797Y-55380951D01*
X210737797Y-55380951D02*
X210797321Y-55321427D01*
X210797321Y-55321427D02*
X210916369Y-55261904D01*
X210916369Y-55261904D02*
X211035416Y-55261904D01*
X211035416Y-55261904D02*
X211213988Y-55321427D01*
X211213988Y-55321427D02*
X211928273Y-56035713D01*
X211928273Y-56035713D02*
X211928273Y-55261904D01*
X210678273Y-53773808D02*
X211690178Y-53773808D01*
X211690178Y-53773808D02*
X211809226Y-53714285D01*
X211809226Y-53714285D02*
X211868750Y-53654761D01*
X211868750Y-53654761D02*
X211928273Y-53535713D01*
X211928273Y-53535713D02*
X211928273Y-53297618D01*
X211928273Y-53297618D02*
X211868750Y-53178570D01*
X211868750Y-53178570D02*
X211809226Y-53119047D01*
X211809226Y-53119047D02*
X211690178Y-53059523D01*
X211690178Y-53059523D02*
X210678273Y-53059523D01*
X211809226Y-52464284D02*
X211868750Y-52404761D01*
X211868750Y-52404761D02*
X211928273Y-52464284D01*
X211928273Y-52464284D02*
X211868750Y-52523808D01*
X211868750Y-52523808D02*
X211809226Y-52464284D01*
X211809226Y-52464284D02*
X211928273Y-52464284D01*
X211273511Y-51452380D02*
X211273511Y-51869046D01*
X211928273Y-51869046D02*
X210678273Y-51869046D01*
X210678273Y-51869046D02*
X210678273Y-51273808D01*
X211809226Y-50797617D02*
X211868750Y-50738094D01*
X211868750Y-50738094D02*
X211928273Y-50797617D01*
X211928273Y-50797617D02*
X211868750Y-50857141D01*
X211868750Y-50857141D02*
X211809226Y-50797617D01*
X211809226Y-50797617D02*
X211928273Y-50797617D01*
X210678273Y-49964284D02*
X210678273Y-49726189D01*
X210678273Y-49726189D02*
X210737797Y-49607141D01*
X210737797Y-49607141D02*
X210856845Y-49488094D01*
X210856845Y-49488094D02*
X211094940Y-49428570D01*
X211094940Y-49428570D02*
X211511607Y-49428570D01*
X211511607Y-49428570D02*
X211749702Y-49488094D01*
X211749702Y-49488094D02*
X211868750Y-49607141D01*
X211868750Y-49607141D02*
X211928273Y-49726189D01*
X211928273Y-49726189D02*
X211928273Y-49964284D01*
X211928273Y-49964284D02*
X211868750Y-50083332D01*
X211868750Y-50083332D02*
X211749702Y-50202379D01*
X211749702Y-50202379D02*
X211511607Y-50261903D01*
X211511607Y-50261903D02*
X211094940Y-50261903D01*
X211094940Y-50261903D02*
X210856845Y-50202379D01*
X210856845Y-50202379D02*
X210737797Y-50083332D01*
X210737797Y-50083332D02*
X210678273Y-49964284D01*
X211809226Y-48892855D02*
X211868750Y-48833332D01*
X211868750Y-48833332D02*
X211928273Y-48892855D01*
X211928273Y-48892855D02*
X211868750Y-48952379D01*
X211868750Y-48952379D02*
X211809226Y-48892855D01*
X211809226Y-48892855D02*
X211928273Y-48892855D01*
X211273511Y-47345236D02*
X211273511Y-46928570D01*
X211928273Y-46749998D02*
X211928273Y-47345236D01*
X211928273Y-47345236D02*
X210678273Y-47345236D01*
X210678273Y-47345236D02*
X210678273Y-46749998D01*
X211928273Y-45678570D02*
X210678273Y-45678570D01*
X211868750Y-45678570D02*
X211928273Y-45797618D01*
X211928273Y-45797618D02*
X211928273Y-46035713D01*
X211928273Y-46035713D02*
X211868750Y-46154761D01*
X211868750Y-46154761D02*
X211809226Y-46214284D01*
X211809226Y-46214284D02*
X211690178Y-46273808D01*
X211690178Y-46273808D02*
X211333035Y-46273808D01*
X211333035Y-46273808D02*
X211213988Y-46214284D01*
X211213988Y-46214284D02*
X211154464Y-46154761D01*
X211154464Y-46154761D02*
X211094940Y-46035713D01*
X211094940Y-46035713D02*
X211094940Y-45797618D01*
X211094940Y-45797618D02*
X211154464Y-45678570D01*
X211928273Y-45083332D02*
X211094940Y-45083332D01*
X210678273Y-45083332D02*
X210737797Y-45142856D01*
X210737797Y-45142856D02*
X210797321Y-45083332D01*
X210797321Y-45083332D02*
X210737797Y-45023809D01*
X210737797Y-45023809D02*
X210678273Y-45083332D01*
X210678273Y-45083332D02*
X210797321Y-45083332D01*
X211094940Y-44666666D02*
X211094940Y-44190475D01*
X210678273Y-44488094D02*
X211749702Y-44488094D01*
X211749702Y-44488094D02*
X211868750Y-44428571D01*
X211868750Y-44428571D02*
X211928273Y-44309523D01*
X211928273Y-44309523D02*
X211928273Y-44190475D01*
X211928273Y-43773808D02*
X211094940Y-43773808D01*
X210678273Y-43773808D02*
X210737797Y-43833332D01*
X210737797Y-43833332D02*
X210797321Y-43773808D01*
X210797321Y-43773808D02*
X210737797Y-43714285D01*
X210737797Y-43714285D02*
X210678273Y-43773808D01*
X210678273Y-43773808D02*
X210797321Y-43773808D01*
X211928273Y-42999999D02*
X211868750Y-43119047D01*
X211868750Y-43119047D02*
X211809226Y-43178570D01*
X211809226Y-43178570D02*
X211690178Y-43238094D01*
X211690178Y-43238094D02*
X211333035Y-43238094D01*
X211333035Y-43238094D02*
X211213988Y-43178570D01*
X211213988Y-43178570D02*
X211154464Y-43119047D01*
X211154464Y-43119047D02*
X211094940Y-42999999D01*
X211094940Y-42999999D02*
X211094940Y-42821428D01*
X211094940Y-42821428D02*
X211154464Y-42702380D01*
X211154464Y-42702380D02*
X211213988Y-42642856D01*
X211213988Y-42642856D02*
X211333035Y-42583332D01*
X211333035Y-42583332D02*
X211690178Y-42583332D01*
X211690178Y-42583332D02*
X211809226Y-42642856D01*
X211809226Y-42642856D02*
X211868750Y-42702380D01*
X211868750Y-42702380D02*
X211928273Y-42821428D01*
X211928273Y-42821428D02*
X211928273Y-42999999D01*
X211094940Y-42047618D02*
X211928273Y-42047618D01*
X211213988Y-42047618D02*
X211154464Y-41988095D01*
X211154464Y-41988095D02*
X211094940Y-41869047D01*
X211094940Y-41869047D02*
X211094940Y-41690476D01*
X211094940Y-41690476D02*
X211154464Y-41571428D01*
X211154464Y-41571428D02*
X211273511Y-41511904D01*
X211273511Y-41511904D02*
X211928273Y-41511904D01*
X213953273Y-52583333D02*
X213953273Y-53297618D01*
X213953273Y-52940475D02*
X212703273Y-52940475D01*
X212703273Y-52940475D02*
X212881845Y-53059523D01*
X212881845Y-53059523D02*
X213000892Y-53178571D01*
X213000892Y-53178571D02*
X213060416Y-53297618D01*
X212703273Y-51452380D02*
X212703273Y-52047618D01*
X212703273Y-52047618D02*
X213298511Y-52107142D01*
X213298511Y-52107142D02*
X213238988Y-52047618D01*
X213238988Y-52047618D02*
X213179464Y-51928571D01*
X213179464Y-51928571D02*
X213179464Y-51630952D01*
X213179464Y-51630952D02*
X213238988Y-51511904D01*
X213238988Y-51511904D02*
X213298511Y-51452380D01*
X213298511Y-51452380D02*
X213417559Y-51392857D01*
X213417559Y-51392857D02*
X213715178Y-51392857D01*
X213715178Y-51392857D02*
X213834226Y-51452380D01*
X213834226Y-51452380D02*
X213893750Y-51511904D01*
X213893750Y-51511904D02*
X213953273Y-51630952D01*
X213953273Y-51630952D02*
X213953273Y-51928571D01*
X213953273Y-51928571D02*
X213893750Y-52047618D01*
X213893750Y-52047618D02*
X213834226Y-52107142D01*
X212643750Y-49964285D02*
X214250892Y-51035714D01*
X213238988Y-49369047D02*
X213179464Y-49488095D01*
X213179464Y-49488095D02*
X213119940Y-49547618D01*
X213119940Y-49547618D02*
X213000892Y-49607142D01*
X213000892Y-49607142D02*
X212941369Y-49607142D01*
X212941369Y-49607142D02*
X212822321Y-49547618D01*
X212822321Y-49547618D02*
X212762797Y-49488095D01*
X212762797Y-49488095D02*
X212703273Y-49369047D01*
X212703273Y-49369047D02*
X212703273Y-49130952D01*
X212703273Y-49130952D02*
X212762797Y-49011904D01*
X212762797Y-49011904D02*
X212822321Y-48952380D01*
X212822321Y-48952380D02*
X212941369Y-48892857D01*
X212941369Y-48892857D02*
X213000892Y-48892857D01*
X213000892Y-48892857D02*
X213119940Y-48952380D01*
X213119940Y-48952380D02*
X213179464Y-49011904D01*
X213179464Y-49011904D02*
X213238988Y-49130952D01*
X213238988Y-49130952D02*
X213238988Y-49369047D01*
X213238988Y-49369047D02*
X213298511Y-49488095D01*
X213298511Y-49488095D02*
X213358035Y-49547618D01*
X213358035Y-49547618D02*
X213477083Y-49607142D01*
X213477083Y-49607142D02*
X213715178Y-49607142D01*
X213715178Y-49607142D02*
X213834226Y-49547618D01*
X213834226Y-49547618D02*
X213893750Y-49488095D01*
X213893750Y-49488095D02*
X213953273Y-49369047D01*
X213953273Y-49369047D02*
X213953273Y-49130952D01*
X213953273Y-49130952D02*
X213893750Y-49011904D01*
X213893750Y-49011904D02*
X213834226Y-48952380D01*
X213834226Y-48952380D02*
X213715178Y-48892857D01*
X213715178Y-48892857D02*
X213477083Y-48892857D01*
X213477083Y-48892857D02*
X213358035Y-48952380D01*
X213358035Y-48952380D02*
X213298511Y-49011904D01*
X213298511Y-49011904D02*
X213238988Y-49130952D01*
X212643750Y-47464285D02*
X214250892Y-48535714D01*
X212822321Y-47107142D02*
X212762797Y-47047618D01*
X212762797Y-47047618D02*
X212703273Y-46928571D01*
X212703273Y-46928571D02*
X212703273Y-46630952D01*
X212703273Y-46630952D02*
X212762797Y-46511904D01*
X212762797Y-46511904D02*
X212822321Y-46452380D01*
X212822321Y-46452380D02*
X212941369Y-46392857D01*
X212941369Y-46392857D02*
X213060416Y-46392857D01*
X213060416Y-46392857D02*
X213238988Y-46452380D01*
X213238988Y-46452380D02*
X213953273Y-47166666D01*
X213953273Y-47166666D02*
X213953273Y-46392857D01*
X212703273Y-45976190D02*
X212703273Y-45202381D01*
X212703273Y-45202381D02*
X213179464Y-45619047D01*
X213179464Y-45619047D02*
X213179464Y-45440476D01*
X213179464Y-45440476D02*
X213238988Y-45321428D01*
X213238988Y-45321428D02*
X213298511Y-45261904D01*
X213298511Y-45261904D02*
X213417559Y-45202381D01*
X213417559Y-45202381D02*
X213715178Y-45202381D01*
X213715178Y-45202381D02*
X213834226Y-45261904D01*
X213834226Y-45261904D02*
X213893750Y-45321428D01*
X213893750Y-45321428D02*
X213953273Y-45440476D01*
X213953273Y-45440476D02*
X213953273Y-45797619D01*
X213953273Y-45797619D02*
X213893750Y-45916666D01*
X213893750Y-45916666D02*
X213834226Y-45976190D01*
X215978273Y-51601190D02*
X215978273Y-52196428D01*
X215978273Y-52196428D02*
X214728273Y-52196428D01*
X215859226Y-51184523D02*
X215918750Y-51125000D01*
X215918750Y-51125000D02*
X215978273Y-51184523D01*
X215978273Y-51184523D02*
X215918750Y-51244047D01*
X215918750Y-51244047D02*
X215859226Y-51184523D01*
X215859226Y-51184523D02*
X215978273Y-51184523D01*
X215978273Y-48922619D02*
X215383035Y-49339285D01*
X215978273Y-49636904D02*
X214728273Y-49636904D01*
X214728273Y-49636904D02*
X214728273Y-49160714D01*
X214728273Y-49160714D02*
X214787797Y-49041666D01*
X214787797Y-49041666D02*
X214847321Y-48982143D01*
X214847321Y-48982143D02*
X214966369Y-48922619D01*
X214966369Y-48922619D02*
X215144940Y-48922619D01*
X215144940Y-48922619D02*
X215263988Y-48982143D01*
X215263988Y-48982143D02*
X215323511Y-49041666D01*
X215323511Y-49041666D02*
X215383035Y-49160714D01*
X215383035Y-49160714D02*
X215383035Y-49636904D01*
X215978273Y-48386904D02*
X215144940Y-48386904D01*
X214728273Y-48386904D02*
X214787797Y-48446428D01*
X214787797Y-48446428D02*
X214847321Y-48386904D01*
X214847321Y-48386904D02*
X214787797Y-48327381D01*
X214787797Y-48327381D02*
X214728273Y-48386904D01*
X214728273Y-48386904D02*
X214847321Y-48386904D01*
X215918750Y-47315476D02*
X215978273Y-47434524D01*
X215978273Y-47434524D02*
X215978273Y-47672619D01*
X215978273Y-47672619D02*
X215918750Y-47791666D01*
X215918750Y-47791666D02*
X215799702Y-47851190D01*
X215799702Y-47851190D02*
X215323511Y-47851190D01*
X215323511Y-47851190D02*
X215204464Y-47791666D01*
X215204464Y-47791666D02*
X215144940Y-47672619D01*
X215144940Y-47672619D02*
X215144940Y-47434524D01*
X215144940Y-47434524D02*
X215204464Y-47315476D01*
X215204464Y-47315476D02*
X215323511Y-47255952D01*
X215323511Y-47255952D02*
X215442559Y-47255952D01*
X215442559Y-47255952D02*
X215561607Y-47851190D01*
X215918750Y-46779761D02*
X215978273Y-46660714D01*
X215978273Y-46660714D02*
X215978273Y-46422618D01*
X215978273Y-46422618D02*
X215918750Y-46303571D01*
X215918750Y-46303571D02*
X215799702Y-46244047D01*
X215799702Y-46244047D02*
X215740178Y-46244047D01*
X215740178Y-46244047D02*
X215621130Y-46303571D01*
X215621130Y-46303571D02*
X215561607Y-46422618D01*
X215561607Y-46422618D02*
X215561607Y-46601190D01*
X215561607Y-46601190D02*
X215502083Y-46720237D01*
X215502083Y-46720237D02*
X215383035Y-46779761D01*
X215383035Y-46779761D02*
X215323511Y-46779761D01*
X215323511Y-46779761D02*
X215204464Y-46720237D01*
X215204464Y-46720237D02*
X215144940Y-46601190D01*
X215144940Y-46601190D02*
X215144940Y-46422618D01*
X215144940Y-46422618D02*
X215204464Y-46303571D01*
X216753273Y-54428571D02*
X218003273Y-54130952D01*
X218003273Y-54130952D02*
X217110416Y-53892857D01*
X217110416Y-53892857D02*
X218003273Y-53654762D01*
X218003273Y-53654762D02*
X216753273Y-53357143D01*
X217646130Y-52940476D02*
X217646130Y-52345238D01*
X218003273Y-53059524D02*
X216753273Y-52642857D01*
X216753273Y-52642857D02*
X218003273Y-52226191D01*
X217408035Y-51571428D02*
X218003273Y-51571428D01*
X216753273Y-51988095D02*
X217408035Y-51571428D01*
X217408035Y-51571428D02*
X216753273Y-51154762D01*
X216753273Y-50857142D02*
X218003273Y-50559523D01*
X218003273Y-50559523D02*
X217110416Y-50321428D01*
X217110416Y-50321428D02*
X218003273Y-50083333D01*
X218003273Y-50083333D02*
X216753273Y-49785714D01*
X217646130Y-49369047D02*
X217646130Y-48773809D01*
X218003273Y-49488095D02*
X216753273Y-49071428D01*
X216753273Y-49071428D02*
X218003273Y-48654762D01*
X217408035Y-47999999D02*
X218003273Y-47999999D01*
X216753273Y-48416666D02*
X217408035Y-47999999D01*
X217408035Y-47999999D02*
X216753273Y-47583333D01*
X216753273Y-47285713D02*
X218003273Y-46988094D01*
X218003273Y-46988094D02*
X217110416Y-46749999D01*
X217110416Y-46749999D02*
X218003273Y-46511904D01*
X218003273Y-46511904D02*
X216753273Y-46214285D01*
X217646130Y-45797618D02*
X217646130Y-45202380D01*
X218003273Y-45916666D02*
X216753273Y-45499999D01*
X216753273Y-45499999D02*
X218003273Y-45083333D01*
X217408035Y-44428570D02*
X218003273Y-44428570D01*
X216753273Y-44845237D02*
X217408035Y-44428570D01*
X217408035Y-44428570D02*
X216753273Y-44011904D01*
D11*
X221102619Y-44650476D02*
X220102619Y-44650476D01*
X220578809Y-44650476D02*
X220578809Y-44079048D01*
X221102619Y-44079048D02*
X220102619Y-44079048D01*
X221055000Y-43221905D02*
X221102619Y-43317143D01*
X221102619Y-43317143D02*
X221102619Y-43507619D01*
X221102619Y-43507619D02*
X221055000Y-43602857D01*
X221055000Y-43602857D02*
X220959761Y-43650476D01*
X220959761Y-43650476D02*
X220578809Y-43650476D01*
X220578809Y-43650476D02*
X220483571Y-43602857D01*
X220483571Y-43602857D02*
X220435952Y-43507619D01*
X220435952Y-43507619D02*
X220435952Y-43317143D01*
X220435952Y-43317143D02*
X220483571Y-43221905D01*
X220483571Y-43221905D02*
X220578809Y-43174286D01*
X220578809Y-43174286D02*
X220674047Y-43174286D01*
X220674047Y-43174286D02*
X220769285Y-43650476D01*
X221102619Y-42317143D02*
X220578809Y-42317143D01*
X220578809Y-42317143D02*
X220483571Y-42364762D01*
X220483571Y-42364762D02*
X220435952Y-42460000D01*
X220435952Y-42460000D02*
X220435952Y-42650476D01*
X220435952Y-42650476D02*
X220483571Y-42745714D01*
X221055000Y-42317143D02*
X221102619Y-42412381D01*
X221102619Y-42412381D02*
X221102619Y-42650476D01*
X221102619Y-42650476D02*
X221055000Y-42745714D01*
X221055000Y-42745714D02*
X220959761Y-42793333D01*
X220959761Y-42793333D02*
X220864523Y-42793333D01*
X220864523Y-42793333D02*
X220769285Y-42745714D01*
X220769285Y-42745714D02*
X220721666Y-42650476D01*
X220721666Y-42650476D02*
X220721666Y-42412381D01*
X220721666Y-42412381D02*
X220674047Y-42317143D01*
X220435952Y-41983809D02*
X220435952Y-41602857D01*
X220102619Y-41840952D02*
X220959761Y-41840952D01*
X220959761Y-41840952D02*
X221055000Y-41793333D01*
X221055000Y-41793333D02*
X221102619Y-41698095D01*
X221102619Y-41698095D02*
X221102619Y-41602857D01*
X221055000Y-40888571D02*
X221102619Y-40983809D01*
X221102619Y-40983809D02*
X221102619Y-41174285D01*
X221102619Y-41174285D02*
X221055000Y-41269523D01*
X221055000Y-41269523D02*
X220959761Y-41317142D01*
X220959761Y-41317142D02*
X220578809Y-41317142D01*
X220578809Y-41317142D02*
X220483571Y-41269523D01*
X220483571Y-41269523D02*
X220435952Y-41174285D01*
X220435952Y-41174285D02*
X220435952Y-40983809D01*
X220435952Y-40983809D02*
X220483571Y-40888571D01*
X220483571Y-40888571D02*
X220578809Y-40840952D01*
X220578809Y-40840952D02*
X220674047Y-40840952D01*
X220674047Y-40840952D02*
X220769285Y-41317142D01*
X221102619Y-40412380D02*
X220435952Y-40412380D01*
X220626428Y-40412380D02*
X220531190Y-40364761D01*
X220531190Y-40364761D02*
X220483571Y-40317142D01*
X220483571Y-40317142D02*
X220435952Y-40221904D01*
X220435952Y-40221904D02*
X220435952Y-40126666D01*
X197851666Y-60705237D02*
X197851666Y-59943333D01*
X198232619Y-60324285D02*
X197470714Y-60324285D01*
X197708809Y-58371904D02*
X197708809Y-58705237D01*
X198232619Y-58705237D02*
X197232619Y-58705237D01*
X197232619Y-58705237D02*
X197232619Y-58229047D01*
X198232619Y-57419523D02*
X197708809Y-57419523D01*
X197708809Y-57419523D02*
X197613571Y-57467142D01*
X197613571Y-57467142D02*
X197565952Y-57562380D01*
X197565952Y-57562380D02*
X197565952Y-57752856D01*
X197565952Y-57752856D02*
X197613571Y-57848094D01*
X198185000Y-57419523D02*
X198232619Y-57514761D01*
X198232619Y-57514761D02*
X198232619Y-57752856D01*
X198232619Y-57752856D02*
X198185000Y-57848094D01*
X198185000Y-57848094D02*
X198089761Y-57895713D01*
X198089761Y-57895713D02*
X197994523Y-57895713D01*
X197994523Y-57895713D02*
X197899285Y-57848094D01*
X197899285Y-57848094D02*
X197851666Y-57752856D01*
X197851666Y-57752856D02*
X197851666Y-57514761D01*
X197851666Y-57514761D02*
X197804047Y-57419523D01*
X197565952Y-56943332D02*
X198232619Y-56943332D01*
X197661190Y-56943332D02*
X197613571Y-56895713D01*
X197613571Y-56895713D02*
X197565952Y-56800475D01*
X197565952Y-56800475D02*
X197565952Y-56657618D01*
X197565952Y-56657618D02*
X197613571Y-56562380D01*
X197613571Y-56562380D02*
X197708809Y-56514761D01*
X197708809Y-56514761D02*
X198232619Y-56514761D01*
X197851666Y-55276665D02*
X197851666Y-54514761D01*
X209007380Y-60615238D02*
X209055000Y-60662857D01*
X209055000Y-60662857D02*
X209102619Y-60805714D01*
X209102619Y-60805714D02*
X209102619Y-60900952D01*
X209102619Y-60900952D02*
X209055000Y-61043809D01*
X209055000Y-61043809D02*
X208959761Y-61139047D01*
X208959761Y-61139047D02*
X208864523Y-61186666D01*
X208864523Y-61186666D02*
X208674047Y-61234285D01*
X208674047Y-61234285D02*
X208531190Y-61234285D01*
X208531190Y-61234285D02*
X208340714Y-61186666D01*
X208340714Y-61186666D02*
X208245476Y-61139047D01*
X208245476Y-61139047D02*
X208150238Y-61043809D01*
X208150238Y-61043809D02*
X208102619Y-60900952D01*
X208102619Y-60900952D02*
X208102619Y-60805714D01*
X208102619Y-60805714D02*
X208150238Y-60662857D01*
X208150238Y-60662857D02*
X208197857Y-60615238D01*
X209102619Y-59758095D02*
X208578809Y-59758095D01*
X208578809Y-59758095D02*
X208483571Y-59805714D01*
X208483571Y-59805714D02*
X208435952Y-59900952D01*
X208435952Y-59900952D02*
X208435952Y-60091428D01*
X208435952Y-60091428D02*
X208483571Y-60186666D01*
X209055000Y-59758095D02*
X209102619Y-59853333D01*
X209102619Y-59853333D02*
X209102619Y-60091428D01*
X209102619Y-60091428D02*
X209055000Y-60186666D01*
X209055000Y-60186666D02*
X208959761Y-60234285D01*
X208959761Y-60234285D02*
X208864523Y-60234285D01*
X208864523Y-60234285D02*
X208769285Y-60186666D01*
X208769285Y-60186666D02*
X208721666Y-60091428D01*
X208721666Y-60091428D02*
X208721666Y-59853333D01*
X208721666Y-59853333D02*
X208674047Y-59758095D01*
X208435952Y-59281904D02*
X209435952Y-59281904D01*
X208483571Y-59281904D02*
X208435952Y-59186666D01*
X208435952Y-59186666D02*
X208435952Y-58996190D01*
X208435952Y-58996190D02*
X208483571Y-58900952D01*
X208483571Y-58900952D02*
X208531190Y-58853333D01*
X208531190Y-58853333D02*
X208626428Y-58805714D01*
X208626428Y-58805714D02*
X208912142Y-58805714D01*
X208912142Y-58805714D02*
X209007380Y-58853333D01*
X209007380Y-58853333D02*
X209055000Y-58900952D01*
X209055000Y-58900952D02*
X209102619Y-58996190D01*
X209102619Y-58996190D02*
X209102619Y-59186666D01*
X209102619Y-59186666D02*
X209055000Y-59281904D01*
X224566666Y-47962619D02*
X225138094Y-47962619D01*
X224852380Y-48962619D02*
X224852380Y-47962619D01*
X225471428Y-48962619D02*
X225471428Y-47962619D01*
X225899999Y-48962619D02*
X225899999Y-48438809D01*
X225899999Y-48438809D02*
X225852380Y-48343571D01*
X225852380Y-48343571D02*
X225757142Y-48295952D01*
X225757142Y-48295952D02*
X225614285Y-48295952D01*
X225614285Y-48295952D02*
X225519047Y-48343571D01*
X225519047Y-48343571D02*
X225471428Y-48391190D01*
X226757142Y-48915000D02*
X226661904Y-48962619D01*
X226661904Y-48962619D02*
X226471428Y-48962619D01*
X226471428Y-48962619D02*
X226376190Y-48915000D01*
X226376190Y-48915000D02*
X226328571Y-48819761D01*
X226328571Y-48819761D02*
X226328571Y-48438809D01*
X226328571Y-48438809D02*
X226376190Y-48343571D01*
X226376190Y-48343571D02*
X226471428Y-48295952D01*
X226471428Y-48295952D02*
X226661904Y-48295952D01*
X226661904Y-48295952D02*
X226757142Y-48343571D01*
X226757142Y-48343571D02*
X226804761Y-48438809D01*
X226804761Y-48438809D02*
X226804761Y-48534047D01*
X226804761Y-48534047D02*
X226328571Y-48629285D01*
X227233333Y-48962619D02*
X227233333Y-48295952D01*
X227233333Y-48486428D02*
X227280952Y-48391190D01*
X227280952Y-48391190D02*
X227328571Y-48343571D01*
X227328571Y-48343571D02*
X227423809Y-48295952D01*
X227423809Y-48295952D02*
X227519047Y-48295952D01*
X227852381Y-48962619D02*
X227852381Y-48295952D01*
X227852381Y-48391190D02*
X227900000Y-48343571D01*
X227900000Y-48343571D02*
X227995238Y-48295952D01*
X227995238Y-48295952D02*
X228138095Y-48295952D01*
X228138095Y-48295952D02*
X228233333Y-48343571D01*
X228233333Y-48343571D02*
X228280952Y-48438809D01*
X228280952Y-48438809D02*
X228280952Y-48962619D01*
X228280952Y-48438809D02*
X228328571Y-48343571D01*
X228328571Y-48343571D02*
X228423809Y-48295952D01*
X228423809Y-48295952D02*
X228566666Y-48295952D01*
X228566666Y-48295952D02*
X228661905Y-48343571D01*
X228661905Y-48343571D02*
X228709524Y-48438809D01*
X228709524Y-48438809D02*
X228709524Y-48962619D01*
X229185714Y-48962619D02*
X229185714Y-48295952D01*
X229185714Y-47962619D02*
X229138095Y-48010238D01*
X229138095Y-48010238D02*
X229185714Y-48057857D01*
X229185714Y-48057857D02*
X229233333Y-48010238D01*
X229233333Y-48010238D02*
X229185714Y-47962619D01*
X229185714Y-47962619D02*
X229185714Y-48057857D01*
X229614285Y-48915000D02*
X229709523Y-48962619D01*
X229709523Y-48962619D02*
X229899999Y-48962619D01*
X229899999Y-48962619D02*
X229995237Y-48915000D01*
X229995237Y-48915000D02*
X230042856Y-48819761D01*
X230042856Y-48819761D02*
X230042856Y-48772142D01*
X230042856Y-48772142D02*
X229995237Y-48676904D01*
X229995237Y-48676904D02*
X229899999Y-48629285D01*
X229899999Y-48629285D02*
X229757142Y-48629285D01*
X229757142Y-48629285D02*
X229661904Y-48581666D01*
X229661904Y-48581666D02*
X229614285Y-48486428D01*
X229614285Y-48486428D02*
X229614285Y-48438809D01*
X229614285Y-48438809D02*
X229661904Y-48343571D01*
X229661904Y-48343571D02*
X229757142Y-48295952D01*
X229757142Y-48295952D02*
X229899999Y-48295952D01*
X229899999Y-48295952D02*
X229995237Y-48343571D01*
X230328571Y-48295952D02*
X230709523Y-48295952D01*
X230471428Y-47962619D02*
X230471428Y-48819761D01*
X230471428Y-48819761D02*
X230519047Y-48915000D01*
X230519047Y-48915000D02*
X230614285Y-48962619D01*
X230614285Y-48962619D02*
X230709523Y-48962619D01*
X231185714Y-48962619D02*
X231090476Y-48915000D01*
X231090476Y-48915000D02*
X231042857Y-48867380D01*
X231042857Y-48867380D02*
X230995238Y-48772142D01*
X230995238Y-48772142D02*
X230995238Y-48486428D01*
X230995238Y-48486428D02*
X231042857Y-48391190D01*
X231042857Y-48391190D02*
X231090476Y-48343571D01*
X231090476Y-48343571D02*
X231185714Y-48295952D01*
X231185714Y-48295952D02*
X231328571Y-48295952D01*
X231328571Y-48295952D02*
X231423809Y-48343571D01*
X231423809Y-48343571D02*
X231471428Y-48391190D01*
X231471428Y-48391190D02*
X231519047Y-48486428D01*
X231519047Y-48486428D02*
X231519047Y-48772142D01*
X231519047Y-48772142D02*
X231471428Y-48867380D01*
X231471428Y-48867380D02*
X231423809Y-48915000D01*
X231423809Y-48915000D02*
X231328571Y-48962619D01*
X231328571Y-48962619D02*
X231185714Y-48962619D01*
X231947619Y-48962619D02*
X231947619Y-48295952D01*
X231947619Y-48486428D02*
X231995238Y-48391190D01*
X231995238Y-48391190D02*
X232042857Y-48343571D01*
X232042857Y-48343571D02*
X232138095Y-48295952D01*
X232138095Y-48295952D02*
X232233333Y-48295952D01*
X220057142Y-48338809D02*
X219723809Y-48338809D01*
X219723809Y-48862619D02*
X219723809Y-47862619D01*
X219723809Y-47862619D02*
X220199999Y-47862619D01*
X221009523Y-48195952D02*
X221009523Y-48862619D01*
X220580952Y-48195952D02*
X220580952Y-48719761D01*
X220580952Y-48719761D02*
X220628571Y-48815000D01*
X220628571Y-48815000D02*
X220723809Y-48862619D01*
X220723809Y-48862619D02*
X220866666Y-48862619D01*
X220866666Y-48862619D02*
X220961904Y-48815000D01*
X220961904Y-48815000D02*
X221009523Y-48767380D01*
X221438095Y-48815000D02*
X221533333Y-48862619D01*
X221533333Y-48862619D02*
X221723809Y-48862619D01*
X221723809Y-48862619D02*
X221819047Y-48815000D01*
X221819047Y-48815000D02*
X221866666Y-48719761D01*
X221866666Y-48719761D02*
X221866666Y-48672142D01*
X221866666Y-48672142D02*
X221819047Y-48576904D01*
X221819047Y-48576904D02*
X221723809Y-48529285D01*
X221723809Y-48529285D02*
X221580952Y-48529285D01*
X221580952Y-48529285D02*
X221485714Y-48481666D01*
X221485714Y-48481666D02*
X221438095Y-48386428D01*
X221438095Y-48386428D02*
X221438095Y-48338809D01*
X221438095Y-48338809D02*
X221485714Y-48243571D01*
X221485714Y-48243571D02*
X221580952Y-48195952D01*
X221580952Y-48195952D02*
X221723809Y-48195952D01*
X221723809Y-48195952D02*
X221819047Y-48243571D01*
X222676190Y-48815000D02*
X222580952Y-48862619D01*
X222580952Y-48862619D02*
X222390476Y-48862619D01*
X222390476Y-48862619D02*
X222295238Y-48815000D01*
X222295238Y-48815000D02*
X222247619Y-48719761D01*
X222247619Y-48719761D02*
X222247619Y-48338809D01*
X222247619Y-48338809D02*
X222295238Y-48243571D01*
X222295238Y-48243571D02*
X222390476Y-48195952D01*
X222390476Y-48195952D02*
X222580952Y-48195952D01*
X222580952Y-48195952D02*
X222676190Y-48243571D01*
X222676190Y-48243571D02*
X222723809Y-48338809D01*
X222723809Y-48338809D02*
X222723809Y-48434047D01*
X222723809Y-48434047D02*
X222247619Y-48529285D01*
X211152619Y-66512380D02*
X210152619Y-66512380D01*
X210485952Y-66036190D02*
X211152619Y-66036190D01*
X210581190Y-66036190D02*
X210533571Y-65988571D01*
X210533571Y-65988571D02*
X210485952Y-65893333D01*
X210485952Y-65893333D02*
X210485952Y-65750476D01*
X210485952Y-65750476D02*
X210533571Y-65655238D01*
X210533571Y-65655238D02*
X210628809Y-65607619D01*
X210628809Y-65607619D02*
X211152619Y-65607619D01*
X196922619Y-72572380D02*
X195922619Y-72572380D01*
X195922619Y-72572380D02*
X196922619Y-72000952D01*
X196922619Y-72000952D02*
X195922619Y-72000952D01*
X196875000Y-71143809D02*
X196922619Y-71239047D01*
X196922619Y-71239047D02*
X196922619Y-71429523D01*
X196922619Y-71429523D02*
X196875000Y-71524761D01*
X196875000Y-71524761D02*
X196779761Y-71572380D01*
X196779761Y-71572380D02*
X196398809Y-71572380D01*
X196398809Y-71572380D02*
X196303571Y-71524761D01*
X196303571Y-71524761D02*
X196255952Y-71429523D01*
X196255952Y-71429523D02*
X196255952Y-71239047D01*
X196255952Y-71239047D02*
X196303571Y-71143809D01*
X196303571Y-71143809D02*
X196398809Y-71096190D01*
X196398809Y-71096190D02*
X196494047Y-71096190D01*
X196494047Y-71096190D02*
X196589285Y-71572380D01*
X196922619Y-70524761D02*
X196875000Y-70619999D01*
X196875000Y-70619999D02*
X196827380Y-70667618D01*
X196827380Y-70667618D02*
X196732142Y-70715237D01*
X196732142Y-70715237D02*
X196446428Y-70715237D01*
X196446428Y-70715237D02*
X196351190Y-70667618D01*
X196351190Y-70667618D02*
X196303571Y-70619999D01*
X196303571Y-70619999D02*
X196255952Y-70524761D01*
X196255952Y-70524761D02*
X196255952Y-70381904D01*
X196255952Y-70381904D02*
X196303571Y-70286666D01*
X196303571Y-70286666D02*
X196351190Y-70239047D01*
X196351190Y-70239047D02*
X196446428Y-70191428D01*
X196446428Y-70191428D02*
X196732142Y-70191428D01*
X196732142Y-70191428D02*
X196827380Y-70239047D01*
X196827380Y-70239047D02*
X196875000Y-70286666D01*
X196875000Y-70286666D02*
X196922619Y-70381904D01*
X196922619Y-70381904D02*
X196922619Y-70524761D01*
X196255952Y-69762856D02*
X197255952Y-69762856D01*
X196303571Y-69762856D02*
X196255952Y-69667618D01*
X196255952Y-69667618D02*
X196255952Y-69477142D01*
X196255952Y-69477142D02*
X196303571Y-69381904D01*
X196303571Y-69381904D02*
X196351190Y-69334285D01*
X196351190Y-69334285D02*
X196446428Y-69286666D01*
X196446428Y-69286666D02*
X196732142Y-69286666D01*
X196732142Y-69286666D02*
X196827380Y-69334285D01*
X196827380Y-69334285D02*
X196875000Y-69381904D01*
X196875000Y-69381904D02*
X196922619Y-69477142D01*
X196922619Y-69477142D02*
X196922619Y-69667618D01*
X196922619Y-69667618D02*
X196875000Y-69762856D01*
X196922619Y-68858094D02*
X196255952Y-68858094D01*
X195922619Y-68858094D02*
X195970238Y-68905713D01*
X195970238Y-68905713D02*
X196017857Y-68858094D01*
X196017857Y-68858094D02*
X195970238Y-68810475D01*
X195970238Y-68810475D02*
X195922619Y-68858094D01*
X195922619Y-68858094D02*
X196017857Y-68858094D01*
X196922619Y-68477142D02*
X196255952Y-67953333D01*
X196255952Y-68477142D02*
X196922619Y-67953333D01*
X196875000Y-67191428D02*
X196922619Y-67286666D01*
X196922619Y-67286666D02*
X196922619Y-67477142D01*
X196922619Y-67477142D02*
X196875000Y-67572380D01*
X196875000Y-67572380D02*
X196779761Y-67619999D01*
X196779761Y-67619999D02*
X196398809Y-67619999D01*
X196398809Y-67619999D02*
X196303571Y-67572380D01*
X196303571Y-67572380D02*
X196255952Y-67477142D01*
X196255952Y-67477142D02*
X196255952Y-67286666D01*
X196255952Y-67286666D02*
X196303571Y-67191428D01*
X196303571Y-67191428D02*
X196398809Y-67143809D01*
X196398809Y-67143809D02*
X196494047Y-67143809D01*
X196494047Y-67143809D02*
X196589285Y-67619999D01*
X196922619Y-66572380D02*
X196875000Y-66667618D01*
X196875000Y-66667618D02*
X196779761Y-66715237D01*
X196779761Y-66715237D02*
X195922619Y-66715237D01*
X197542619Y-75215238D02*
X197542619Y-75024762D01*
X197542619Y-75024762D02*
X197590238Y-74929524D01*
X197590238Y-74929524D02*
X197685476Y-74834286D01*
X197685476Y-74834286D02*
X197875952Y-74786667D01*
X197875952Y-74786667D02*
X198209285Y-74786667D01*
X198209285Y-74786667D02*
X198399761Y-74834286D01*
X198399761Y-74834286D02*
X198495000Y-74929524D01*
X198495000Y-74929524D02*
X198542619Y-75024762D01*
X198542619Y-75024762D02*
X198542619Y-75215238D01*
X198542619Y-75215238D02*
X198495000Y-75310476D01*
X198495000Y-75310476D02*
X198399761Y-75405714D01*
X198399761Y-75405714D02*
X198209285Y-75453333D01*
X198209285Y-75453333D02*
X197875952Y-75453333D01*
X197875952Y-75453333D02*
X197685476Y-75405714D01*
X197685476Y-75405714D02*
X197590238Y-75310476D01*
X197590238Y-75310476D02*
X197542619Y-75215238D01*
X197875952Y-73929524D02*
X198542619Y-73929524D01*
X197875952Y-74358095D02*
X198399761Y-74358095D01*
X198399761Y-74358095D02*
X198495000Y-74310476D01*
X198495000Y-74310476D02*
X198542619Y-74215238D01*
X198542619Y-74215238D02*
X198542619Y-74072381D01*
X198542619Y-74072381D02*
X198495000Y-73977143D01*
X198495000Y-73977143D02*
X198447380Y-73929524D01*
X197875952Y-73596190D02*
X197875952Y-73215238D01*
X197542619Y-73453333D02*
X198399761Y-73453333D01*
X198399761Y-73453333D02*
X198495000Y-73405714D01*
X198495000Y-73405714D02*
X198542619Y-73310476D01*
X198542619Y-73310476D02*
X198542619Y-73215238D01*
X198542619Y-72119999D02*
X197542619Y-72119999D01*
X197875952Y-71643809D02*
X198542619Y-71643809D01*
X197971190Y-71643809D02*
X197923571Y-71596190D01*
X197923571Y-71596190D02*
X197875952Y-71500952D01*
X197875952Y-71500952D02*
X197875952Y-71358095D01*
X197875952Y-71358095D02*
X197923571Y-71262857D01*
X197923571Y-71262857D02*
X198018809Y-71215238D01*
X198018809Y-71215238D02*
X198542619Y-71215238D01*
X198161666Y-69977142D02*
X198161666Y-69215238D01*
X198542619Y-69596190D02*
X197780714Y-69596190D01*
X197542619Y-68262857D02*
X197542619Y-68739047D01*
X197542619Y-68739047D02*
X198018809Y-68786666D01*
X198018809Y-68786666D02*
X197971190Y-68739047D01*
X197971190Y-68739047D02*
X197923571Y-68643809D01*
X197923571Y-68643809D02*
X197923571Y-68405714D01*
X197923571Y-68405714D02*
X197971190Y-68310476D01*
X197971190Y-68310476D02*
X198018809Y-68262857D01*
X198018809Y-68262857D02*
X198114047Y-68215238D01*
X198114047Y-68215238D02*
X198352142Y-68215238D01*
X198352142Y-68215238D02*
X198447380Y-68262857D01*
X198447380Y-68262857D02*
X198495000Y-68310476D01*
X198495000Y-68310476D02*
X198542619Y-68405714D01*
X198542619Y-68405714D02*
X198542619Y-68643809D01*
X198542619Y-68643809D02*
X198495000Y-68739047D01*
X198495000Y-68739047D02*
X198447380Y-68786666D01*
X197542619Y-67929523D02*
X198542619Y-67596190D01*
X198542619Y-67596190D02*
X197542619Y-67262857D01*
X197590238Y-65643809D02*
X197542619Y-65739047D01*
X197542619Y-65739047D02*
X197542619Y-65881904D01*
X197542619Y-65881904D02*
X197590238Y-66024761D01*
X197590238Y-66024761D02*
X197685476Y-66119999D01*
X197685476Y-66119999D02*
X197780714Y-66167618D01*
X197780714Y-66167618D02*
X197971190Y-66215237D01*
X197971190Y-66215237D02*
X198114047Y-66215237D01*
X198114047Y-66215237D02*
X198304523Y-66167618D01*
X198304523Y-66167618D02*
X198399761Y-66119999D01*
X198399761Y-66119999D02*
X198495000Y-66024761D01*
X198495000Y-66024761D02*
X198542619Y-65881904D01*
X198542619Y-65881904D02*
X198542619Y-65786666D01*
X198542619Y-65786666D02*
X198495000Y-65643809D01*
X198495000Y-65643809D02*
X198447380Y-65596190D01*
X198447380Y-65596190D02*
X198114047Y-65596190D01*
X198114047Y-65596190D02*
X198114047Y-65786666D01*
X197875952Y-65167618D02*
X198542619Y-65167618D01*
X197971190Y-65167618D02*
X197923571Y-65119999D01*
X197923571Y-65119999D02*
X197875952Y-65024761D01*
X197875952Y-65024761D02*
X197875952Y-64881904D01*
X197875952Y-64881904D02*
X197923571Y-64786666D01*
X197923571Y-64786666D02*
X198018809Y-64739047D01*
X198018809Y-64739047D02*
X198542619Y-64739047D01*
X198542619Y-63834285D02*
X197542619Y-63834285D01*
X198495000Y-63834285D02*
X198542619Y-63929523D01*
X198542619Y-63929523D02*
X198542619Y-64119999D01*
X198542619Y-64119999D02*
X198495000Y-64215237D01*
X198495000Y-64215237D02*
X198447380Y-64262856D01*
X198447380Y-64262856D02*
X198352142Y-64310475D01*
X198352142Y-64310475D02*
X198066428Y-64310475D01*
X198066428Y-64310475D02*
X197971190Y-64262856D01*
X197971190Y-64262856D02*
X197923571Y-64215237D01*
X197923571Y-64215237D02*
X197875952Y-64119999D01*
X197875952Y-64119999D02*
X197875952Y-63929523D01*
X197875952Y-63929523D02*
X197923571Y-63834285D01*
X226996666Y-35022619D02*
X226996666Y-35736904D01*
X226996666Y-35736904D02*
X226949047Y-35879761D01*
X226949047Y-35879761D02*
X226853809Y-35975000D01*
X226853809Y-35975000D02*
X226710952Y-36022619D01*
X226710952Y-36022619D02*
X226615714Y-36022619D01*
X227377619Y-35022619D02*
X227996666Y-35022619D01*
X227996666Y-35022619D02*
X227663333Y-35403571D01*
X227663333Y-35403571D02*
X227806190Y-35403571D01*
X227806190Y-35403571D02*
X227901428Y-35451190D01*
X227901428Y-35451190D02*
X227949047Y-35498809D01*
X227949047Y-35498809D02*
X227996666Y-35594047D01*
X227996666Y-35594047D02*
X227996666Y-35832142D01*
X227996666Y-35832142D02*
X227949047Y-35927380D01*
X227949047Y-35927380D02*
X227901428Y-35975000D01*
X227901428Y-35975000D02*
X227806190Y-36022619D01*
X227806190Y-36022619D02*
X227520476Y-36022619D01*
X227520476Y-36022619D02*
X227425238Y-35975000D01*
X227425238Y-35975000D02*
X227377619Y-35927380D01*
D12*
X198750000Y-61850000D02*
X200000000Y-61850000D01*
X199040000Y-61560000D02*
X205010000Y-61560000D01*
X205010000Y-61560000D02*
X205010000Y-53940000D01*
X199050000Y-61550000D02*
X199800000Y-61550000D01*
X199800000Y-61550000D02*
X199800000Y-59750000D01*
X201300000Y-61550000D02*
X201300000Y-60800000D01*
X201300000Y-60800000D02*
X204250000Y-60800000D01*
X204250000Y-60800000D02*
X204250000Y-57750000D01*
X198750000Y-60600000D02*
X198750000Y-61850000D01*
X199050000Y-59750000D02*
X199050000Y-61550000D01*
X199800000Y-59750000D02*
X199050000Y-59750000D01*
X199050000Y-58250000D02*
X199800000Y-58250000D01*
X199800000Y-58250000D02*
X199800000Y-57250000D01*
X199050000Y-57250000D02*
X199050000Y-58250000D01*
X199800000Y-57250000D02*
X199050000Y-57250000D01*
X199050000Y-55750000D02*
X199800000Y-55750000D01*
X199800000Y-55750000D02*
X199800000Y-53950000D01*
X201300000Y-54700000D02*
X204250000Y-54700000D01*
X204250000Y-54700000D02*
X204250000Y-57750000D01*
X199050000Y-53950000D02*
X199050000Y-55750000D01*
X199800000Y-53950000D02*
X199050000Y-53950000D01*
X201300000Y-53950000D02*
X201300000Y-54700000D01*
X199040000Y-53940000D02*
X199040000Y-61560000D01*
X205010000Y-53940000D02*
X199040000Y-53940000D01*
X217950000Y-57100000D02*
X219200000Y-57100000D01*
X218240000Y-56810000D02*
X224210000Y-56810000D01*
X224210000Y-56810000D02*
X224210000Y-49190000D01*
X218250000Y-56800000D02*
X219000000Y-56800000D01*
X219000000Y-56800000D02*
X219000000Y-55000000D01*
X220500000Y-56800000D02*
X220500000Y-56050000D01*
X220500000Y-56050000D02*
X223450000Y-56050000D01*
X223450000Y-56050000D02*
X223450000Y-53000000D01*
X217950000Y-55850000D02*
X217950000Y-57100000D01*
X218250000Y-55000000D02*
X218250000Y-56800000D01*
X219000000Y-55000000D02*
X218250000Y-55000000D01*
X218250000Y-53500000D02*
X219000000Y-53500000D01*
X219000000Y-53500000D02*
X219000000Y-52500000D01*
X218250000Y-52500000D02*
X218250000Y-53500000D01*
X219000000Y-52500000D02*
X218250000Y-52500000D01*
X218250000Y-51000000D02*
X219000000Y-51000000D01*
X219000000Y-51000000D02*
X219000000Y-49200000D01*
X220500000Y-49950000D02*
X223450000Y-49950000D01*
X223450000Y-49950000D02*
X223450000Y-53000000D01*
X218250000Y-49200000D02*
X218250000Y-51000000D01*
X219000000Y-49200000D02*
X218250000Y-49200000D01*
X220500000Y-49200000D02*
X220500000Y-49950000D01*
X218240000Y-49190000D02*
X218240000Y-56810000D01*
X224210000Y-49190000D02*
X218240000Y-49190000D01*
X198750000Y-76350000D02*
X200000000Y-76350000D01*
X199040000Y-76060000D02*
X205010000Y-76060000D01*
X205010000Y-76060000D02*
X205010000Y-63440000D01*
X199050000Y-76050000D02*
X199800000Y-76050000D01*
X199800000Y-76050000D02*
X199800000Y-74250000D01*
X201300000Y-76050000D02*
X201300000Y-75300000D01*
X201300000Y-75300000D02*
X204250000Y-75300000D01*
X204250000Y-75300000D02*
X204250000Y-69750000D01*
X198750000Y-75100000D02*
X198750000Y-76350000D01*
X199050000Y-74250000D02*
X199050000Y-76050000D01*
X199800000Y-74250000D02*
X199050000Y-74250000D01*
X199050000Y-72750000D02*
X199800000Y-72750000D01*
X199800000Y-72750000D02*
X199800000Y-66750000D01*
X199050000Y-66750000D02*
X199050000Y-72750000D01*
X199800000Y-66750000D02*
X199050000Y-66750000D01*
X199050000Y-65250000D02*
X199800000Y-65250000D01*
X199800000Y-65250000D02*
X199800000Y-63450000D01*
X201300000Y-64200000D02*
X204250000Y-64200000D01*
X204250000Y-64200000D02*
X204250000Y-69750000D01*
X199050000Y-63450000D02*
X199050000Y-65250000D01*
X199800000Y-63450000D02*
X199050000Y-63450000D01*
X201300000Y-63450000D02*
X201300000Y-64200000D01*
X199040000Y-63440000D02*
X199040000Y-76060000D01*
X205010000Y-63440000D02*
X199040000Y-63440000D01*
X225325000Y-57100000D02*
X226575000Y-57100000D01*
X225615000Y-56810000D02*
X231585000Y-56810000D01*
X231585000Y-56810000D02*
X231585000Y-49190000D01*
X225625000Y-56800000D02*
X226375000Y-56800000D01*
X226375000Y-56800000D02*
X226375000Y-55000000D01*
X227875000Y-56800000D02*
X227875000Y-56050000D01*
X227875000Y-56050000D02*
X230825000Y-56050000D01*
X230825000Y-56050000D02*
X230825000Y-53000000D01*
X225325000Y-55850000D02*
X225325000Y-57100000D01*
X225625000Y-55000000D02*
X225625000Y-56800000D01*
X226375000Y-55000000D02*
X225625000Y-55000000D01*
X225625000Y-53500000D02*
X226375000Y-53500000D01*
X226375000Y-53500000D02*
X226375000Y-52500000D01*
X225625000Y-52500000D02*
X225625000Y-53500000D01*
X226375000Y-52500000D02*
X225625000Y-52500000D01*
X225625000Y-51000000D02*
X226375000Y-51000000D01*
X226375000Y-51000000D02*
X226375000Y-49200000D01*
X227875000Y-49950000D02*
X230825000Y-49950000D01*
X230825000Y-49950000D02*
X230825000Y-53000000D01*
X225625000Y-49200000D02*
X225625000Y-51000000D01*
X226375000Y-49200000D02*
X225625000Y-49200000D01*
X227875000Y-49200000D02*
X227875000Y-49950000D01*
X225615000Y-49190000D02*
X225615000Y-56810000D01*
X231585000Y-49190000D02*
X225615000Y-49190000D01*
X231060000Y-47840000D02*
X231800000Y-47840000D01*
X231800000Y-47840000D02*
X231800000Y-47340000D01*
X221639000Y-47600000D02*
X231560000Y-47600000D01*
X221639000Y-47600000D02*
X221639000Y-37320000D01*
X224599000Y-47600000D02*
X224599000Y-37320000D01*
X229500000Y-47600000D02*
X229500000Y-37320000D01*
X231000000Y-47600000D02*
X231000000Y-37320000D01*
X231560000Y-47600000D02*
X231560000Y-37320000D01*
X227923000Y-41147000D02*
X227969000Y-41194000D01*
X228139000Y-40954000D02*
X228174000Y-40989000D01*
X225625000Y-38850000D02*
X225661000Y-38885000D01*
X225831000Y-38645000D02*
X225877000Y-38692000D01*
X221639000Y-37320000D02*
X231560000Y-37320000D01*
X226216001Y-46534999D02*
G75*
G03*
X227583042Y-46535426I684000J1534992D01*
G01*
X225365001Y-44316001D02*
G75*
G03*
X225364574Y-45683042I1534992J-684000D01*
G01*
X228434999Y-45684000D02*
G75*
G03*
X228580252Y-44971195I-1535000J683999D01*
G01*
X228579999Y-45000000D02*
G75*
G03*
X228434755Y-44316682I-1679999J0D01*
G01*
X227584000Y-43465000D02*
G75*
G03*
X226216958Y-43464574I-684000J-1535000D01*
G01*
X228580000Y-39920000D02*
G75*
G03*
X228580000Y-39920000I-1680000J0D01*
G01*
X209831000Y-60251252D02*
X209831000Y-59728748D01*
X211301000Y-60251252D02*
X211301000Y-59728748D01*
X231685000Y-70030000D02*
X230685000Y-71030000D01*
X231685000Y-60900000D02*
X231685000Y-70030000D01*
X230685000Y-71030000D02*
X213315000Y-71030000D01*
X213315000Y-71030000D02*
X212315000Y-70030000D01*
X212315000Y-70030000D02*
X212315000Y-60900000D01*
X212315000Y-60900000D02*
X231685000Y-60900000D01*
%LPC*%
D13*
X168690000Y-52600000D03*
X227880000Y-30310000D03*
D14*
X201500000Y-59000000D03*
D15*
X201500000Y-56500000D03*
D14*
X220700000Y-54250000D03*
D15*
X220700000Y-51750000D03*
D16*
X201500000Y-73500000D03*
D17*
X201500000Y-71000000D03*
X201500000Y-68500000D03*
X201500000Y-66000000D03*
D14*
X228075000Y-54250000D03*
D15*
X228075000Y-51750000D03*
D13*
X187720000Y-83900000D03*
X192490000Y-76400000D03*
D18*
X226900000Y-45000000D03*
D19*
X226900000Y-39920000D03*
D20*
X210566000Y-61027500D03*
X210566000Y-58952500D03*
D13*
X187710000Y-44920000D03*
X192490000Y-52600000D03*
X168690000Y-76400000D03*
X206250000Y-90640000D03*
D21*
X225840000Y-66320000D03*
X218140000Y-66320000D03*
D22*
X228000000Y-62000000D03*
D23*
X225000000Y-62000000D03*
X222000000Y-62000000D03*
X219000000Y-62000000D03*
X216000000Y-62000000D03*
X228000000Y-59000000D03*
X225000000Y-59000000D03*
X222000000Y-59000000D03*
X219000000Y-59000000D03*
X216000000Y-59000000D03*
M02*
