G04 #@! TF.GenerationSoftware,KiCad,Pcbnew,7.0.1*
G04 #@! TF.CreationDate,2023-09-20T22:51:36-04:00*
G04 #@! TF.ProjectId,kirigami_pcb,6b697269-6761-46d6-995f-7063622e6b69,rev?*
G04 #@! TF.SameCoordinates,Original*
G04 #@! TF.FileFunction,Legend,Bot*
G04 #@! TF.FilePolarity,Positive*
%FSLAX46Y46*%
G04 Gerber Fmt 4.6, Leading zero omitted, Abs format (unit mm)*
G04 Created by KiCad (PCBNEW 7.0.1) date 2023-09-20 22:51:36*
%MOMM*%
%LPD*%
G01*
G04 APERTURE LIST*
G04 Aperture macros list*
%AMRoundRect*
0 Rectangle with rounded corners*
0 $1 Rounding radius*
0 $2 $3 $4 $5 $6 $7 $8 $9 X,Y pos of 4 corners*
0 Add a 4 corners polygon primitive as box body*
4,1,4,$2,$3,$4,$5,$6,$7,$8,$9,$2,$3,0*
0 Add four circle primitives for the rounded corners*
1,1,$1+$1,$2,$3*
1,1,$1+$1,$4,$5*
1,1,$1+$1,$6,$7*
1,1,$1+$1,$8,$9*
0 Add four rect primitives between the rounded corners*
20,1,$1+$1,$2,$3,$4,$5,0*
20,1,$1+$1,$4,$5,$6,$7,0*
20,1,$1+$1,$6,$7,$8,$9,0*
20,1,$1+$1,$8,$9,$2,$3,0*%
%AMRotRect*
0 Rectangle, with rotation*
0 The origin of the aperture is its center*
0 $1 length*
0 $2 width*
0 $3 Rotation angle, in degrees counterclockwise*
0 Add horizontal line*
21,1,$1,$2,0,0,$3*%
G04 Aperture macros list end*
%ADD10C,0.120000*%
%ADD11C,3.200000*%
%ADD12RoundRect,0.250000X0.750000X-0.600000X0.750000X0.600000X-0.750000X0.600000X-0.750000X-0.600000X0*%
%ADD13O,2.000000X1.700000*%
%ADD14RoundRect,0.250000X0.725000X-0.600000X0.725000X0.600000X-0.725000X0.600000X-0.725000X-0.600000X0*%
%ADD15O,1.950000X1.700000*%
%ADD16R,2.600000X2.600000*%
%ADD17C,2.600000*%
%ADD18C,3.000000*%
%ADD19RoundRect,0.250001X0.499999X0.499999X-0.499999X0.499999X-0.499999X-0.499999X0.499999X-0.499999X0*%
%ADD20C,1.500000*%
%ADD21RoundRect,0.250000X-0.242612X0.529784X-0.580112X-0.054784X0.242612X-0.529784X0.580112X0.054784X0*%
%ADD22RotRect,1.500000X0.900000X200.000000*%
%ADD23RoundRect,0.250000X0.330922X-0.479606X0.561786X0.154687X-0.330922X0.479606X-0.561786X-0.154687X0*%
%ADD24RoundRect,0.250000X-0.561786X0.154687X-0.330922X-0.479606X0.561786X-0.154687X0.330922X0.479606X0*%
%ADD25RotRect,1.500000X0.900000X240.000000*%
%ADD26RoundRect,0.250000X0.479606X0.330922X-0.154687X0.561786X-0.479606X-0.330922X0.154687X-0.561786X0*%
%ADD27R,1.500000X0.900000*%
%ADD28RotRect,1.500000X0.900000X300.000000*%
%ADD29RoundRect,0.250000X-0.580112X0.054784X-0.242612X-0.529784X0.580112X-0.054784X0.242612X0.529784X0*%
%ADD30RotRect,1.500000X0.900000X340.000000*%
%ADD31RoundRect,0.250000X-0.337500X-0.475000X0.337500X-0.475000X0.337500X0.475000X-0.337500X0.475000X0*%
G04 APERTURE END LIST*
D10*
X182457155Y-70431249D02*
X182195903Y-70883751D01*
X181184097Y-69696249D02*
X180922845Y-70148751D01*
X179626630Y-48847984D02*
X172766874Y-51344731D01*
X177745520Y-43679675D02*
X170885764Y-46176422D01*
X172766874Y-51344731D02*
X172373551Y-50264085D01*
X179879972Y-81064112D02*
X180058679Y-80573119D01*
X181261321Y-81566881D02*
X181440028Y-81075888D01*
X224266630Y-32607984D02*
X217406874Y-35104731D01*
X222385520Y-27439675D02*
X215525764Y-29936422D01*
X217406874Y-35104731D02*
X217013551Y-34024085D01*
X180026167Y-44420050D02*
X180204874Y-44911043D01*
X178644818Y-44922819D02*
X178823525Y-45413812D01*
X182252628Y-67092245D02*
X178602628Y-73414231D01*
X177489488Y-64342245D02*
X173839488Y-70664231D01*
X178602628Y-73414231D02*
X177606699Y-72839231D01*
X199164112Y-86680028D02*
X198673119Y-86501321D01*
X199666881Y-85298679D02*
X199175888Y-85119972D01*
X216666475Y-33548188D02*
X216845182Y-34039181D01*
X215285126Y-34050957D02*
X215463833Y-34541950D01*
X182000000Y-61752340D02*
X189300000Y-61752340D01*
X182000000Y-67252340D02*
X189300000Y-67252340D01*
X189300000Y-61752340D02*
X189300000Y-62902340D01*
X178602628Y-55585769D02*
X182252628Y-61907755D01*
X173839488Y-58335769D02*
X177489488Y-64657755D01*
X182252628Y-61907755D02*
X181256699Y-62482755D01*
X181747153Y-57307748D02*
X182008405Y-57760250D01*
X180474095Y-58042748D02*
X180735347Y-58495250D01*
X204536475Y-40178188D02*
X204715182Y-40669181D01*
X203155126Y-40680957D02*
X203333833Y-41171950D01*
X172774480Y-77449675D02*
X179634236Y-79946422D01*
X170893370Y-82617984D02*
X177753126Y-85114731D01*
X179634236Y-79946422D02*
X179240913Y-81027068D01*
X184891248Y-59395000D02*
X185413752Y-59395000D01*
X184891248Y-60865000D02*
X185413752Y-60865000D01*
X201946630Y-40727984D02*
X195086874Y-43224731D01*
X200065520Y-35559675D02*
X193205764Y-38056422D01*
X195086874Y-43224731D02*
X194693551Y-42144085D01*
X195091148Y-85569257D02*
X201950904Y-88066004D01*
X193210038Y-90737566D02*
X200069794Y-93234313D01*
X201950904Y-88066004D02*
X201557581Y-89146650D01*
%LPC*%
D11*
X168690000Y-52600000D03*
X227880000Y-30310000D03*
D12*
X201500000Y-59000000D03*
D13*
X201500000Y-56500000D03*
D12*
X220700000Y-54250000D03*
D13*
X220700000Y-51750000D03*
D14*
X201500000Y-73500000D03*
D15*
X201500000Y-71000000D03*
X201500000Y-68500000D03*
X201500000Y-66000000D03*
D12*
X228075000Y-54250000D03*
D13*
X228075000Y-51750000D03*
D11*
X187720000Y-83900000D03*
X192490000Y-76400000D03*
D16*
X226900000Y-45000000D03*
D17*
X226900000Y-39920000D03*
D11*
X187710000Y-44920000D03*
X192490000Y-52600000D03*
X168690000Y-76400000D03*
X206250000Y-90640000D03*
D18*
X225840000Y-66320000D03*
X218140000Y-66320000D03*
D19*
X228000000Y-62000000D03*
D20*
X225000000Y-62000000D03*
X222000000Y-62000000D03*
X219000000Y-62000000D03*
X216000000Y-62000000D03*
X228000000Y-59000000D03*
X225000000Y-59000000D03*
X222000000Y-59000000D03*
X219000000Y-59000000D03*
X216000000Y-59000000D03*
D21*
X182208750Y-69391499D03*
X181171250Y-71188501D03*
D22*
X176994111Y-45123761D03*
X178122777Y-48224746D03*
X173518283Y-49900645D03*
X172389617Y-46799660D03*
D23*
X180305154Y-82044931D03*
X181014846Y-80095069D03*
D22*
X221634111Y-28883761D03*
X222762777Y-31984746D03*
X218158283Y-33660645D03*
X217029617Y-30559660D03*
D24*
X179070000Y-43942000D03*
X179779692Y-45891862D03*
D25*
X177842116Y-65931476D03*
X180700000Y-67581476D03*
X178250000Y-71825000D03*
X175392116Y-70175000D03*
D26*
X200144931Y-86254846D03*
X198195069Y-85545154D03*
D24*
X215710308Y-33070138D03*
X216420000Y-35020000D03*
D27*
X183200000Y-66152340D03*
X183200000Y-62852340D03*
X188100000Y-62852340D03*
X188100000Y-66152340D03*
D28*
X175392116Y-58825000D03*
X178250000Y-57175000D03*
X180700000Y-61418524D03*
X177842116Y-63068524D03*
D29*
X180722500Y-57002998D03*
X181760000Y-58800000D03*
D24*
X203580308Y-39700138D03*
X204290000Y-41650000D03*
D30*
X172397223Y-81994746D03*
X173525889Y-78893761D03*
X178130383Y-80569660D03*
X177001717Y-83670645D03*
D31*
X184115000Y-60130000D03*
X186190000Y-60130000D03*
D22*
X199314111Y-37003761D03*
X200442777Y-40104746D03*
X195838283Y-41780645D03*
X194709617Y-38679660D03*
D30*
X194713891Y-90114328D03*
X195842557Y-87013343D03*
X200447051Y-88689242D03*
X199318385Y-91790227D03*
M02*
