G04 #@! TF.GenerationSoftware,KiCad,Pcbnew,7.0.1*
G04 #@! TF.CreationDate,2023-09-20T22:51:36-04:00*
G04 #@! TF.ProjectId,kirigami_pcb,6b697269-6761-46d6-995f-7063622e6b69,rev?*
G04 #@! TF.SameCoordinates,Original*
G04 #@! TF.FileFunction,Paste,Bot*
G04 #@! TF.FilePolarity,Positive*
%FSLAX46Y46*%
G04 Gerber Fmt 4.6, Leading zero omitted, Abs format (unit mm)*
G04 Created by KiCad (PCBNEW 7.0.1) date 2023-09-20 22:51:36*
%MOMM*%
%LPD*%
G01*
G04 APERTURE LIST*
G04 Aperture macros list*
%AMRoundRect*
0 Rectangle with rounded corners*
0 $1 Rounding radius*
0 $2 $3 $4 $5 $6 $7 $8 $9 X,Y pos of 4 corners*
0 Add a 4 corners polygon primitive as box body*
4,1,4,$2,$3,$4,$5,$6,$7,$8,$9,$2,$3,0*
0 Add four circle primitives for the rounded corners*
1,1,$1+$1,$2,$3*
1,1,$1+$1,$4,$5*
1,1,$1+$1,$6,$7*
1,1,$1+$1,$8,$9*
0 Add four rect primitives between the rounded corners*
20,1,$1+$1,$2,$3,$4,$5,0*
20,1,$1+$1,$4,$5,$6,$7,0*
20,1,$1+$1,$6,$7,$8,$9,0*
20,1,$1+$1,$8,$9,$2,$3,0*%
%AMRotRect*
0 Rectangle, with rotation*
0 The origin of the aperture is its center*
0 $1 length*
0 $2 width*
0 $3 Rotation angle, in degrees counterclockwise*
0 Add horizontal line*
21,1,$1,$2,0,0,$3*%
G04 Aperture macros list end*
%ADD10RoundRect,0.250000X-0.242612X0.529784X-0.580112X-0.054784X0.242612X-0.529784X0.580112X0.054784X0*%
%ADD11RotRect,1.500000X0.900000X200.000000*%
%ADD12RoundRect,0.250000X0.330922X-0.479606X0.561786X0.154687X-0.330922X0.479606X-0.561786X-0.154687X0*%
%ADD13RoundRect,0.250000X-0.561786X0.154687X-0.330922X-0.479606X0.561786X-0.154687X0.330922X0.479606X0*%
%ADD14RotRect,1.500000X0.900000X240.000000*%
%ADD15RoundRect,0.250000X0.479606X0.330922X-0.154687X0.561786X-0.479606X-0.330922X0.154687X-0.561786X0*%
%ADD16R,1.500000X0.900000*%
%ADD17RotRect,1.500000X0.900000X300.000000*%
%ADD18RoundRect,0.250000X-0.580112X0.054784X-0.242612X-0.529784X0.580112X-0.054784X0.242612X0.529784X0*%
%ADD19RotRect,1.500000X0.900000X340.000000*%
%ADD20RoundRect,0.250000X-0.337500X-0.475000X0.337500X-0.475000X0.337500X0.475000X-0.337500X0.475000X0*%
G04 APERTURE END LIST*
D10*
X182208750Y-69391499D03*
X181171250Y-71188501D03*
D11*
X176994111Y-45123761D03*
X178122777Y-48224746D03*
X173518283Y-49900645D03*
X172389617Y-46799660D03*
D12*
X180305154Y-82044931D03*
X181014846Y-80095069D03*
D11*
X221634111Y-28883761D03*
X222762777Y-31984746D03*
X218158283Y-33660645D03*
X217029617Y-30559660D03*
D13*
X179070000Y-43942000D03*
X179779692Y-45891862D03*
D14*
X177842116Y-65931476D03*
X180700000Y-67581476D03*
X178250000Y-71825000D03*
X175392116Y-70175000D03*
D15*
X200144931Y-86254846D03*
X198195069Y-85545154D03*
D13*
X215710308Y-33070138D03*
X216420000Y-35020000D03*
D16*
X183200000Y-66152340D03*
X183200000Y-62852340D03*
X188100000Y-62852340D03*
X188100000Y-66152340D03*
D17*
X175392116Y-58825000D03*
X178250000Y-57175000D03*
X180700000Y-61418524D03*
X177842116Y-63068524D03*
D18*
X180722500Y-57002998D03*
X181760000Y-58800000D03*
D13*
X203580308Y-39700138D03*
X204290000Y-41650000D03*
D19*
X172397223Y-81994746D03*
X173525889Y-78893761D03*
X178130383Y-80569660D03*
X177001717Y-83670645D03*
D20*
X184115000Y-60130000D03*
X186190000Y-60130000D03*
D11*
X199314111Y-37003761D03*
X200442777Y-40104746D03*
X195838283Y-41780645D03*
X194709617Y-38679660D03*
D19*
X194713891Y-90114328D03*
X195842557Y-87013343D03*
X200447051Y-88689242D03*
X199318385Y-91790227D03*
M02*
