M48
; DRILL file {KiCad 7.0.1} date Wed Sep 20 22:51:38 2023
; FORMAT={-:-/ absolute / inch / decimal}
; #@! TF.CreationDate,2023-09-20T22:51:38-04:00
; #@! TF.GenerationSoftware,Kicad,Pcbnew,7.0.1
; #@! TF.FileFunction,Plated,1,2,PTH
FMAT,2
INCH
; #@! TA.AperFunction,Plated,PTH,ViaDrill
T1C0.0118
; #@! TA.AperFunction,Plated,PTH,ViaDrill
T2C0.0138
; #@! TA.AperFunction,Plated,PTH,ComponentDrill
T3C0.0374
; #@! TA.AperFunction,Plated,PTH,ComponentDrill
T4C0.0394
; #@! TA.AperFunction,Plated,PTH,ComponentDrill
T5C0.0402
; #@! TA.AperFunction,Plated,PTH,ComponentDrill
T6C0.0512
%
G90
G05
T1
X6.7873Y-3.2281
X6.9683Y-1.7765
X7.0017Y-2.5957
X7.0986Y-3.2301
X7.2142Y-2.6047
X7.2486Y-2.3673
X7.6659Y-3.5478
X7.847Y-1.4568
X7.8797Y-3.3959
X7.9913Y-1.4571
X8.4281Y-2.0728
X8.7258Y-1.1372
T2
X8.2902Y-2.3215
X8.2902Y-2.4031
T3
X7.9331Y-2.5984
X7.9331Y-2.6969
X7.9331Y-2.7953
X7.9331Y-2.8937
T4
X7.9331Y-2.2244
X7.9331Y-2.3228
X8.689Y-2.0374
X8.689Y-2.1358
X8.9793Y-2.0374
X8.9793Y-2.1358
T5
X8.5039Y-2.3228
X8.5039Y-2.4409
X8.622Y-2.3228
X8.622Y-2.4409
X8.7402Y-2.3228
X8.7402Y-2.4409
X8.8583Y-2.3228
X8.8583Y-2.4409
X8.9764Y-2.3228
X8.9764Y-2.4409
T6
X8.9331Y-1.5717
X8.9331Y-1.7717
T0
M30
